<svg width="440" height="323" viewBox="0 0 440 323" fill="none" xmlns="http://www.w3.org/2000/svg">
<g clip-path="url(#clip0_1071_8)">
<rect width="440" height="323" fill="white"/>
<g opacity="0.1">
<path opacity="0.1" d="M184.3 196.857C187.572 196.857 190.224 193.384 190.224 189.1C190.224 184.816 187.572 181.344 184.3 181.344C181.028 181.344 178.376 184.816 178.376 189.1C178.376 193.384 181.028 196.857 184.3 196.857Z" fill="#3F3D56"/>
<path opacity="0.1" d="M188.99 155.913C189.817 154.47 190.244 152.833 190.229 151.171C190.229 146.886 187.574 143.414 184.3 143.414C181.026 143.414 178.355 146.897 178.355 151.181C178.34 152.844 178.768 154.481 179.594 155.923C178.782 157.371 178.355 159.003 178.355 160.663C178.355 162.323 178.782 163.956 179.594 165.403C178.782 166.851 178.355 168.483 178.355 170.143C178.355 171.803 178.782 173.435 179.594 174.883C178.766 176.325 178.339 177.963 178.355 179.626C178.355 183.905 181.01 187.382 184.279 187.382C187.548 187.382 190.208 183.905 190.208 179.626C190.225 177.963 189.797 176.325 188.969 174.883C189.782 173.435 190.208 171.803 190.208 170.143C190.208 168.483 189.782 166.851 188.969 165.403C189.782 163.956 190.208 162.323 190.208 160.663C190.208 159.003 189.782 157.371 188.969 155.923L188.99 155.913Z" fill="#3F3D56"/>
<path opacity="0.1" d="M184.3 149.458C187.572 149.458 190.224 145.985 190.224 141.701C190.224 137.417 187.572 133.944 184.3 133.944C181.028 133.944 178.376 137.417 178.376 141.701C178.376 145.985 181.028 149.458 184.3 149.458Z" fill="#3F3D56"/>
<path opacity="0.1" d="M184.3 139.978C187.572 139.978 190.224 136.505 190.224 132.221C190.224 127.937 187.572 124.465 184.3 124.465C181.028 124.465 178.376 127.937 178.376 132.221C178.376 136.505 181.028 139.978 184.3 139.978Z" fill="#3F3D56"/>
<path opacity="0.1" d="M162.124 67.341C161.312 66.3119 160.575 65.2263 159.917 64.0925L175.482 61.5365L158.647 61.6614C157.035 58.1453 156.158 54.3374 156.068 50.4705C155.979 46.6036 156.679 42.7591 158.126 39.1722L180.713 50.8906L159.891 35.575C161.827 32.1717 164.446 29.2056 167.583 26.8633C170.72 24.521 174.308 22.853 178.121 21.9643C181.934 21.0756 185.89 20.9853 189.74 21.6992C193.589 22.413 197.25 23.9155 200.491 26.1122C203.732 28.309 206.483 31.1525 208.572 34.4639C210.661 37.7754 212.043 41.4832 212.63 45.3544C213.217 49.2255 212.997 53.1762 211.983 56.9582C210.97 60.7402 209.185 64.2716 206.741 67.3306C208.003 68.9341 209.089 70.669 209.979 72.5052L189.766 83.0314L211.312 75.8005C212.826 80.2733 213.201 85.0532 212.402 89.7073C211.603 94.3615 209.655 98.7427 206.736 102.454C210.029 106.641 212.078 111.669 212.648 116.965C213.218 122.261 212.286 127.611 209.959 132.402C207.633 137.193 204.004 141.233 199.49 144.06C194.975 146.886 189.756 148.385 184.43 148.385C179.104 148.385 173.885 146.886 169.37 144.06C164.856 141.233 161.228 137.193 158.901 132.402C156.574 127.611 155.642 122.261 156.212 116.965C156.782 111.669 158.831 106.641 162.124 102.454C158.189 97.4515 156.049 91.2709 156.049 84.9055C156.049 78.5401 158.189 72.3594 162.124 67.3566V67.341Z" fill="#6C63FF"/>
<path opacity="0.1" d="M212.811 84.8899C212.821 91.2569 210.68 97.4408 206.736 102.439C210.029 106.625 212.078 111.654 212.648 116.95C213.218 122.246 212.286 127.595 209.959 132.386C207.632 137.178 204.004 141.218 199.49 144.044C194.975 146.87 189.756 148.369 184.43 148.369C179.104 148.369 173.885 146.87 169.37 144.044C164.856 141.218 161.228 137.178 158.901 132.386C156.574 127.595 155.642 122.246 156.212 116.95C156.782 111.654 158.831 106.625 162.124 102.439C158.319 97.6077 212.811 81.7039 212.811 84.8899Z" fill="black"/>
</g>
<g opacity="0.1">
<path opacity="0.1" d="M253.462 178.309C255.908 178.309 257.892 175.714 257.892 172.514C257.892 169.314 255.908 166.72 253.462 166.72C251.015 166.72 249.032 169.314 249.032 172.514C249.032 175.714 251.015 178.309 253.462 178.309Z" fill="#3F3D56"/>
<path opacity="0.1" d="M256.96 147.719C257.575 146.642 257.893 145.42 257.881 144.179C257.881 140.977 255.898 138.38 253.456 138.38C251.015 138.38 249.026 140.983 249.026 144.179C249.013 145.421 249.333 146.643 249.953 147.719C249.345 148.801 249.026 150.021 249.026 151.262C249.026 152.502 249.345 153.722 249.953 154.804C249.345 155.886 249.026 157.106 249.026 158.347C249.026 159.587 249.345 160.807 249.953 161.889C249.333 162.965 249.013 164.188 249.026 165.429C249.026 168.631 251.01 171.229 253.456 171.229C255.903 171.229 257.881 168.626 257.881 165.429C257.893 164.188 257.575 162.967 256.96 161.889C257.562 160.806 257.878 159.587 257.878 158.347C257.878 157.107 257.562 155.888 256.96 154.804C257.562 153.721 257.878 152.501 257.878 151.262C257.878 150.022 257.562 148.803 256.96 147.719Z" fill="#3F3D56"/>
<path opacity="0.1" d="M253.462 142.888C255.908 142.888 257.892 140.294 257.892 137.094C257.892 133.894 255.908 131.3 253.462 131.3C251.015 131.3 249.032 133.894 249.032 137.094C249.032 140.294 251.015 142.888 253.462 142.888Z" fill="#3F3D56"/>
<path opacity="0.1" d="M253.462 135.803C255.908 135.803 257.892 133.209 257.892 130.009C257.892 126.809 255.908 124.215 253.462 124.215C251.015 124.215 249.032 126.809 249.032 130.009C249.032 133.209 251.015 135.803 253.462 135.803Z" fill="#3F3D56"/>
<path opacity="0.1" d="M236.887 81.5268C236.279 80.7591 235.728 79.9483 235.237 79.1009L246.871 77.1904L234.289 77.2841C233.082 74.657 232.424 71.8114 232.354 68.9211C232.284 66.0309 232.805 63.1568 233.883 60.4745L250.765 69.2359L235.195 57.783C236.651 55.2573 238.612 53.0588 240.956 51.3248C243.3 49.5907 245.976 48.3585 248.817 47.7048C251.658 47.0512 254.603 46.9902 257.469 47.5257C260.335 48.0612 263.059 49.1817 265.473 50.8173C267.886 52.4528 269.936 54.5683 271.496 57.0317C273.055 59.495 274.09 62.2534 274.536 65.1346C274.982 68.0157 274.829 70.9579 274.087 73.7774C273.345 76.5969 272.03 79.2331 270.224 81.5217C271.166 82.7212 271.977 84.0179 272.644 85.3896L257.548 93.2348L273.649 87.8311C274.78 91.1736 275.059 94.7454 274.462 98.2232C273.865 101.701 272.41 104.975 270.229 107.749C272.693 110.876 274.227 114.634 274.655 118.593C275.084 122.551 274.389 126.55 272.651 130.133C270.913 133.715 268.202 136.736 264.828 138.849C261.453 140.962 257.552 142.083 253.571 142.083C249.589 142.083 245.688 140.962 242.314 138.849C238.94 136.736 236.228 133.715 234.49 130.133C232.752 126.55 232.058 122.551 232.486 118.593C232.915 114.634 234.449 110.876 236.913 107.749C233.972 104.01 232.373 99.3917 232.373 94.6351C232.373 89.8785 233.972 85.26 236.913 81.5217L236.887 81.5268Z" fill="#6C63FF"/>
<path opacity="0.1" d="M274.763 94.6403C274.77 99.398 273.17 104.019 270.224 107.754C272.688 110.881 274.222 114.639 274.65 118.598C275.079 122.556 274.384 126.555 272.646 130.138C270.908 133.72 268.197 136.741 264.823 138.854C261.448 140.967 257.547 142.088 253.566 142.088C249.584 142.088 245.683 140.967 242.309 138.854C238.935 136.741 236.223 133.72 234.485 130.138C232.747 126.555 232.053 122.556 232.481 118.598C232.91 114.639 234.444 110.881 236.908 107.754C234.055 104.146 274.763 92.2612 274.763 94.6403Z" fill="black"/>
</g>
<g opacity="0.1">
<path opacity="0.1" d="M418.187 175.185C420.634 175.185 422.617 172.591 422.617 169.391C422.617 166.191 420.634 163.597 418.187 163.597C415.741 163.597 413.757 166.191 413.757 169.391C413.757 172.591 415.741 175.185 418.187 175.185Z" fill="#3F3D56"/>
<path opacity="0.1" d="M414.689 144.595C414.073 143.518 413.755 142.296 413.768 141.056C413.768 137.854 415.751 135.256 418.193 135.256C420.634 135.256 422.622 137.859 422.622 141.056C422.636 142.297 422.316 143.52 421.696 144.595C422.303 145.677 422.622 146.897 422.622 148.138C422.622 149.379 422.303 150.599 421.696 151.681C422.303 152.763 422.622 153.982 422.622 155.223C422.622 156.464 422.303 157.684 421.696 158.766C422.316 159.842 422.636 161.064 422.622 162.306C422.622 165.507 420.639 168.105 418.193 168.105C415.746 168.105 413.768 165.502 413.768 162.306C413.755 161.065 414.073 159.843 414.689 158.766C414.087 157.682 413.77 156.463 413.77 155.223C413.77 153.983 414.087 152.764 414.689 151.681C414.087 150.597 413.77 149.378 413.77 148.138C413.77 146.898 414.087 145.679 414.689 144.595Z" fill="#3F3D56"/>
<path opacity="0.1" d="M418.187 139.764C420.634 139.764 422.617 137.17 422.617 133.97C422.617 130.77 420.634 128.176 418.187 128.176C415.741 128.176 413.757 130.77 413.757 133.97C413.757 137.17 415.741 139.764 418.187 139.764Z" fill="#3F3D56"/>
<path opacity="0.1" d="M418.187 132.679C420.634 132.679 422.617 130.085 422.617 126.885C422.617 123.685 420.634 121.091 418.187 121.091C415.741 121.091 413.757 123.685 413.757 126.885C413.757 130.085 415.741 132.679 418.187 132.679Z" fill="#3F3D56"/>
<path opacity="0.1" d="M434.762 78.4033C435.37 77.6355 435.921 76.8248 436.412 75.9774L424.778 74.0669L437.36 74.1606C438.567 71.5335 439.225 68.6878 439.295 65.7976C439.365 62.9073 438.844 60.0332 437.766 57.3509L420.884 66.1123L436.454 54.6595C434.998 52.1337 433.037 49.9352 430.693 48.2012C428.349 46.4672 425.673 45.2349 422.832 44.5813C419.991 43.9276 417.046 43.8667 414.18 44.4022C411.314 44.9377 408.59 46.0582 406.176 47.6937C403.763 49.3293 401.713 51.4448 400.153 53.9081C398.594 56.3715 397.559 59.1298 397.113 62.011C396.667 64.8922 396.82 67.8344 397.562 70.6539C398.304 73.4733 399.619 76.1096 401.425 78.3981C400.483 79.5977 399.672 80.8943 399.005 82.266L414.101 90.1112L398.031 84.7128C396.9 88.0553 396.621 91.6271 397.218 95.1049C397.815 98.5826 399.27 101.857 401.451 104.63C398.987 107.758 397.453 111.516 397.025 115.474C396.596 119.433 397.291 123.432 399.029 127.014C400.767 130.597 403.478 133.617 406.853 135.731C410.227 137.844 414.128 138.965 418.109 138.965C422.091 138.965 425.992 137.844 429.366 135.731C432.74 133.617 435.452 130.597 437.19 127.014C438.928 123.432 439.622 119.433 439.194 115.474C438.765 111.516 437.231 107.758 434.767 104.63C437.708 100.892 439.307 96.2734 439.307 91.5168C439.307 86.7602 437.708 82.1417 434.767 78.4033H434.762Z" fill="#6C63FF"/>
<path opacity="0.1" d="M396.886 91.5168C396.879 96.2745 398.478 100.895 401.425 104.63C398.961 107.758 397.427 111.516 396.999 115.474C396.57 119.433 397.265 123.432 399.003 127.014C400.741 130.597 403.452 133.617 406.826 135.731C410.201 137.844 414.102 138.965 418.083 138.965C422.065 138.965 425.966 137.844 429.34 135.731C432.714 133.617 435.426 130.597 437.164 127.014C438.902 123.432 439.596 119.433 439.168 115.474C438.739 111.516 437.205 107.758 434.741 104.63C437.594 101.023 396.886 89.1377 396.886 91.5168Z" fill="black"/>
</g>
<g opacity="0.1">
<path opacity="0.1" d="M23.9783 175.185C26.4249 175.185 28.4083 172.591 28.4083 169.391C28.4083 166.191 26.4249 163.597 23.9783 163.597C21.5317 163.597 19.5483 166.191 19.5483 169.391C19.5483 172.591 21.5317 175.185 23.9783 175.185Z" fill="#3F3D56"/>
<path opacity="0.1" d="M27.4818 144.595C28.0976 143.518 28.4157 142.296 28.4032 141.056C28.4032 137.854 26.4251 135.256 23.9785 135.256C21.5318 135.256 19.5485 137.859 19.5485 141.056C19.5376 142.297 19.8574 143.519 20.4751 144.595C19.8677 145.677 19.5487 146.897 19.5487 148.138C19.5487 149.379 19.8677 150.599 20.4751 151.681C19.8677 152.763 19.5487 153.982 19.5487 155.223C19.5487 156.464 19.8677 157.684 20.4751 158.766C19.8574 159.843 19.5376 161.064 19.5485 162.306C19.5485 165.507 21.5318 168.105 23.9785 168.105C26.4251 168.105 28.4032 165.502 28.4032 162.306C28.4157 161.065 28.0976 159.843 27.4818 158.766C28.0844 157.682 28.4007 156.463 28.4007 155.223C28.4007 153.983 28.0844 152.764 27.4818 151.681C28.0844 150.597 28.4007 149.378 28.4007 148.138C28.4007 146.898 28.0844 145.679 27.4818 144.595Z" fill="#3F3D56"/>
<path opacity="0.1" d="M23.9783 139.764C26.4249 139.764 28.4083 137.17 28.4083 133.97C28.4083 130.77 26.4249 128.176 23.9783 128.176C21.5317 128.176 19.5483 130.77 19.5483 133.97C19.5483 137.17 21.5317 139.764 23.9783 139.764Z" fill="#3F3D56"/>
<path opacity="0.1" d="M23.9783 132.679C26.4249 132.679 28.4083 130.085 28.4083 126.885C28.4083 123.685 26.4249 121.091 23.9783 121.091C21.5317 121.091 19.5483 123.685 19.5483 126.885C19.5483 130.085 21.5317 132.679 23.9783 132.679Z" fill="#3F3D56"/>
<path opacity="0.1" d="M7.40376 78.4033C6.79764 77.6343 6.24622 76.8236 5.75358 75.9774L17.3881 74.0668L4.80616 74.1605C3.59917 71.5335 2.94064 68.6878 2.87082 65.7976C2.80101 62.9073 3.32139 60.0332 4.40013 57.3509L21.2819 66.1123L5.71194 54.6595C7.16805 52.1337 9.12913 49.9352 11.4728 48.2012C13.8164 46.4672 16.4923 45.2349 19.3335 44.5813C22.1746 43.9276 25.12 43.8667 27.9857 44.4022C30.8514 44.9377 33.576 46.0582 35.9894 47.6937C38.4028 49.3293 40.4532 51.4448 42.0126 53.9081C43.5719 56.3715 44.6068 59.1298 45.0526 62.011C45.4984 64.8922 45.3456 67.8344 44.6037 70.6538C43.8617 73.4733 42.5466 76.1096 40.7404 78.3981C41.6861 79.5951 42.4978 80.8922 43.161 82.266L28.0648 90.1112L44.1657 84.7076C45.2966 88.0501 45.5761 91.6219 44.979 95.0996C44.3818 98.5774 42.9268 101.851 40.7456 104.625C43.2097 107.753 44.7438 111.511 45.1722 115.469C45.6006 119.428 44.906 123.427 43.1681 127.009C41.4301 130.591 38.7188 133.612 35.3445 135.725C31.9702 137.839 28.0692 138.96 24.0877 138.96C20.1062 138.96 16.2052 137.839 12.8309 135.725C9.45656 133.612 6.74531 130.591 5.00732 127.009C3.26933 123.427 2.57482 119.428 3.00322 115.469C3.43162 111.511 4.96565 107.753 7.42978 104.625C4.48885 100.887 2.88994 96.2682 2.88994 91.5116C2.88994 86.755 4.48885 82.1365 7.42978 78.3981L7.40376 78.4033Z" fill="#6C63FF"/>
<path opacity="0.1" d="M45.2797 91.5168C45.2867 96.2745 43.6873 100.895 40.7404 104.63C43.2045 107.758 44.7386 111.516 45.167 115.474C45.5954 119.433 44.9008 123.432 43.1628 127.014C41.4249 130.597 38.7136 133.617 35.3393 135.731C31.965 137.844 28.064 138.965 24.0825 138.965C20.101 138.965 16.2 137.844 12.8257 135.731C9.45136 133.617 6.74011 130.597 5.00212 127.014C3.26414 123.432 2.56961 119.433 2.99801 115.474C3.42642 111.516 4.96045 107.758 7.42458 104.63C4.5615 101.023 45.2797 89.1377 45.2797 91.5168Z" fill="black"/>
</g>
<path opacity="0.1" d="M220 261.914C377.548 261.914 505.267 259.849 505.267 257.302C505.267 254.754 377.548 252.689 220 252.689C62.4515 252.689 -65.2667 254.754 -65.2667 257.302C-65.2667 259.849 62.4515 261.914 220 261.914Z" fill="#6C63FF"/>
<path opacity="0.1" d="M220 299.786C377.548 299.786 505.267 297.721 505.267 295.174C505.267 292.627 377.548 290.562 220 290.562C62.4515 290.562 -65.2667 292.627 -65.2667 295.174C-65.2667 297.721 62.4515 299.786 220 299.786Z" fill="#6C63FF"/>
<path opacity="0.1" d="M220 182.874C377.548 182.874 505.267 180.809 505.267 178.262C505.267 175.714 377.548 173.649 220 173.649C62.4515 173.649 -65.2667 175.714 -65.2667 178.262C-65.2667 180.809 62.4515 182.874 220 182.874Z" fill="#6C63FF"/>
<path opacity="0.1" d="M220 222.391C377.548 222.391 505.267 220.326 505.267 217.779C505.267 215.232 377.548 213.167 220 213.167C62.4515 213.167 -65.2667 215.232 -65.2667 217.779C-65.2667 220.326 62.4515 222.391 220 222.391Z" fill="#6C63FF"/>
<path opacity="0.1" d="M355.756 58.0433C353.898 57.6924 351.977 57.9026 350.239 58.6472C349.195 59.1123 348.065 59.3526 346.923 59.3526C345.78 59.3526 344.65 59.1123 343.607 58.6472C342.372 58.1052 341.034 57.838 339.686 57.8641C338.338 57.8901 337.011 58.2089 335.798 58.7982C335.107 59.1653 334.337 59.3583 333.555 59.3604C330.39 59.3604 327.761 56.1744 327.214 51.9733C327.837 51.509 328.367 50.9315 328.776 50.271C330.629 47.2829 333.497 45.3619 336.725 45.3619C339.952 45.3619 342.784 47.2569 344.637 50.2138C345.189 51.1072 345.963 51.8424 346.884 52.3478C347.804 52.8532 348.84 53.1116 349.89 53.0978H349.973C352.519 53.0718 354.7 55.0916 355.756 58.0433Z" fill="#6C63FF"/>
<path opacity="0.1" d="M365.392 44.8466L360.28 48.0846L363.404 42.4415C362.524 41.7413 361.436 41.3547 360.312 41.343H360.228C359.88 41.3478 359.531 41.3217 359.187 41.265L357.428 42.3634L358.172 41.0099C356.942 40.5841 355.879 39.7783 355.137 38.7089L352.014 40.6767L353.971 37.1159C352.16 34.9399 349.713 33.6072 347.027 33.6072C343.8 33.6072 340.931 35.5229 339.073 38.5111C338.525 39.4046 337.751 40.1372 336.828 40.6346C335.906 41.132 334.868 41.3764 333.82 41.343H333.649C330.088 41.343 327.204 45.3776 327.204 50.3544C327.204 55.3311 330.088 59.3708 333.649 59.3708C334.431 59.3656 335.2 59.1728 335.892 58.8086C337.105 58.2178 338.431 57.8978 339.779 57.8708C341.128 57.8439 342.466 58.1106 343.701 58.6525C344.743 59.1207 345.874 59.3628 347.017 59.3628C348.16 59.3628 349.29 59.1207 350.333 58.6525C351.558 58.1227 352.882 57.8621 354.217 57.8881C355.551 57.9141 356.865 58.2263 358.068 58.8034C358.753 59.1617 359.513 59.3509 360.286 59.3552C363.846 59.3552 366.73 55.3155 366.73 50.3387C366.752 48.4248 366.292 46.5362 365.392 44.8466Z" fill="#6C63FF"/>
<path opacity="0.1" d="M138.408 55.2269C137.105 54.9808 135.759 55.1276 134.54 55.6486C133.81 55.9746 133.02 56.1432 132.221 56.1432C131.422 56.1432 130.631 55.9746 129.902 55.6486C129.038 55.2693 128.102 55.0826 127.159 55.1015C126.216 55.1204 125.289 55.3443 124.441 55.7579C123.959 56.0095 123.424 56.1433 122.879 56.1483C120.667 56.1483 118.824 53.9202 118.439 50.9789C118.881 50.6552 119.257 50.2507 119.548 49.7868C120.844 47.7045 122.853 46.351 125.113 46.351C127.372 46.351 129.355 47.6784 130.651 49.7452C131.038 50.3708 131.581 50.8856 132.226 51.2395C132.871 51.5935 133.596 51.7745 134.332 51.765H134.389C136.138 51.7546 137.663 53.1706 138.408 55.2269Z" fill="#6C63FF"/>
<path opacity="0.1" d="M145.149 45.9971L141.572 48.2668L143.743 44.3156C143.13 43.8243 142.369 43.5531 141.583 43.5451H141.52C141.273 43.5496 141.025 43.5304 140.781 43.4879L139.568 44.2583L140.089 43.3109C139.229 43.0118 138.486 42.4488 137.965 41.7023L135.794 43.0766L137.168 40.5882C136.591 39.8429 135.856 39.2353 135.015 38.8095C134.174 38.3836 133.249 38.1501 132.306 38.1259C130.047 38.1259 128.038 39.469 126.742 41.5617C126.358 42.1874 125.815 42.7004 125.168 43.0487C124.522 43.397 123.795 43.5683 123.061 43.5451H122.942C120.448 43.5451 118.428 46.3667 118.428 49.8546C118.428 53.3425 120.448 56.1641 122.942 56.1641C123.486 56.1598 124.022 56.0241 124.503 55.7684C125.351 55.3571 126.278 55.1348 127.22 55.1169C128.161 55.0989 129.096 55.2857 129.959 55.6643C130.693 55.9991 131.489 56.1765 132.296 56.1849C133.09 56.1835 133.876 56.0168 134.602 55.6955C135.459 55.3245 136.386 55.1418 137.32 55.1597C138.254 55.1777 139.174 55.3959 140.016 55.7996C140.498 56.0521 141.034 56.1843 141.578 56.1849C144.066 56.1849 146.086 53.3581 146.086 49.8754C146.107 48.5241 145.784 47.1897 145.149 45.9971Z" fill="#6C63FF"/>
<path opacity="0.1" d="M75.0707 96.0458C76.3715 95.8002 77.716 95.9469 78.9332 96.4675C79.6638 96.7937 80.4549 96.9623 81.2549 96.9623C82.055 96.9623 82.8461 96.7937 83.5766 96.4675C84.4402 96.0888 85.3756 95.902 86.3184 95.9199C87.2612 95.9379 88.1888 96.1603 89.0373 96.5716C89.5182 96.8279 90.0541 96.9637 90.599 96.9673C92.8114 96.9673 94.6541 94.734 95.0341 91.7927C94.5929 91.4701 94.2182 91.0653 93.9306 90.6006C92.6292 88.5182 90.6198 87.1699 88.3658 87.1699C86.1118 87.1699 84.1232 88.4922 82.8218 90.5641C82.4352 91.189 81.8937 91.7033 81.2497 92.0572C80.6058 92.4111 79.8814 92.5925 79.1467 92.584H79.0894C77.3351 92.5944 75.8047 94.0052 75.0707 96.0458Z" fill="#6C63FF"/>
<path opacity="0.1" d="M68.3249 86.8316L71.9064 89.1013L69.7304 85.1553C70.3456 84.6625 71.1078 84.3895 71.896 84.3796H71.9532C72.2024 84.3832 72.4514 84.3658 72.6976 84.3276L73.9105 85.0928L73.39 84.1506C74.2479 83.8509 74.9894 83.2879 75.5086 82.542L77.6794 83.9163L76.3259 81.4227C76.9033 80.6781 77.6392 80.0713 78.4801 79.6463C79.321 79.2213 80.246 78.9888 81.1879 78.9656C83.442 78.9656 85.4565 80.3087 86.7527 82.4014C87.1365 83.0263 87.6784 83.5388 88.3237 83.8871C88.9691 84.2354 89.6949 84.4071 90.4279 84.3848H90.5528C93.0411 84.3848 95.0609 87.2116 95.0609 90.6943C95.0609 94.177 93.0411 97.0038 90.5528 97.0038C90.0084 97.0014 89.4726 96.8674 88.9911 96.6133C88.1434 96.1998 87.2159 95.9758 86.2729 95.9569C85.3299 95.938 84.394 96.1247 83.5305 96.504C82.7991 96.8417 82.0039 97.0192 81.1984 97.0246C80.4023 97.0239 79.6151 96.8573 78.8871 96.5352C78.0307 96.1643 77.1046 95.9817 76.1715 95.9996C75.2383 96.0176 74.32 96.2358 73.4785 96.6394C72.9966 96.8918 72.4608 97.024 71.9168 97.0246C69.4233 97.0246 67.4035 94.203 67.4035 90.7151C67.3793 89.3637 67.6962 88.028 68.3249 86.8316Z" fill="#6C63FF"/>
<path d="M280.546 255.808C281.905 253.288 280.364 250.206 278.594 247.963C276.824 245.719 274.659 243.381 274.706 240.523C274.773 236.416 279.136 233.985 282.618 231.809C285.204 230.187 287.59 228.265 289.724 226.082C290.616 225.242 291.355 224.252 291.905 223.157C292.629 221.553 292.608 219.721 292.561 217.951C292.412 212.089 292.122 206.231 291.692 200.376" stroke="#3F3D56" stroke-width="4" stroke-miterlimit="10"/>
<path d="M298.318 200.084C298.268 199.011 297.948 197.967 297.389 197.049C296.829 196.131 296.048 195.369 295.117 194.832L293.68 197.669L293.727 194.233C292.424 193.849 291.033 193.89 289.754 194.348C288.475 194.807 287.376 195.66 286.613 196.784C285.851 197.908 285.466 199.245 285.513 200.603C285.56 201.961 286.037 203.268 286.876 204.337C287.714 205.405 288.87 206.18 290.178 206.548C291.485 206.917 292.876 206.861 294.149 206.388C295.422 205.914 296.512 205.049 297.261 203.916C298.011 202.783 298.381 201.441 298.318 200.084Z" fill="#6C63FF"/>
<path d="M286.887 243.459C286.242 244.712 285.203 245.718 283.929 246.321C282.655 246.923 281.219 247.089 279.841 246.793C278.464 246.496 277.222 245.754 276.309 244.681C275.396 243.608 274.862 242.264 274.789 240.857C274.741 239.969 274.883 239.082 275.206 238.254C275.678 237.046 276.505 236.009 277.577 235.281C278.65 234.553 279.919 234.167 281.215 234.174C282.512 234.182 283.776 234.582 284.841 235.322C285.905 236.063 286.72 237.108 287.179 238.321L283.175 241.58L287.579 240.539C287.584 241.554 287.347 242.555 286.887 243.459Z" fill="#6C63FF"/>
<path d="M283.722 231.017C282.149 231.092 280.605 230.584 279.382 229.592C278.16 228.6 277.345 227.192 277.094 225.638C276.843 224.084 277.173 222.491 278.021 221.165C278.869 219.838 280.176 218.87 281.692 218.445L281.655 221.085L283.108 218.211C284.806 218.132 286.466 218.73 287.723 219.875C288.98 221.02 289.731 222.617 289.81 224.315C289.889 226.013 289.291 227.673 288.146 228.93C287.002 230.187 285.405 230.938 283.706 231.017H283.722Z" fill="#6C63FF"/>
<path d="M299.282 220.663C298.288 220.714 297.296 220.534 296.385 220.135C295.473 219.737 294.667 219.132 294.029 218.368C293.392 217.603 292.942 216.701 292.714 215.733C292.485 214.765 292.486 213.756 292.715 212.788C292.944 211.82 293.395 210.918 294.033 210.155C294.671 209.391 295.477 208.787 296.389 208.389C297.301 207.991 298.293 207.812 299.287 207.864C300.28 207.916 301.248 208.199 302.113 208.69L300.984 211.813L303.29 209.533C304.223 210.388 304.881 211.5 305.183 212.729C305.484 213.958 305.415 215.249 304.984 216.439C304.553 217.629 303.78 218.664 302.761 219.415C301.743 220.166 300.525 220.598 299.261 220.658L299.282 220.663Z" fill="#6C63FF"/>
<path opacity="0.1" d="M297.454 201.792C295.976 201.953 294.539 202.411 293.05 202.505C291.561 202.599 289.927 202.24 289 201.089C288.564 200.419 288.168 199.723 287.813 199.007C287.408 198.375 286.854 197.853 286.199 197.487C285.785 198.299 285.548 199.19 285.506 200.101C285.463 201.012 285.615 201.921 285.952 202.769C286.289 203.616 286.803 204.382 287.46 205.015C288.116 205.647 288.9 206.133 289.76 206.438C290.619 206.744 291.533 206.862 292.442 206.786C293.35 206.71 294.232 206.441 295.029 205.997C295.825 205.553 296.517 204.944 297.059 204.21C297.602 203.477 297.981 202.637 298.172 201.745C297.938 201.75 297.693 201.766 297.454 201.792Z" fill="black"/>
<path opacity="0.1" d="M299.281 220.663C298.176 220.715 297.077 220.481 296.089 219.982C295.102 219.483 294.26 218.738 293.647 217.817C293.033 216.897 292.668 215.834 292.587 214.73C292.506 213.627 292.712 212.522 293.185 211.522C293.693 211.865 294.13 212.303 294.471 212.813C294.854 213.543 295.278 214.25 295.741 214.932C296.741 216.103 298.448 216.493 299.994 216.415C301.54 216.337 303.034 215.895 304.575 215.764C304.789 215.764 305.002 215.733 305.221 215.728C304.902 217.085 304.15 218.3 303.078 219.191C302.006 220.081 300.673 220.598 299.281 220.663Z" fill="black"/>
<path opacity="0.1" d="M283.722 231.018C282.628 231.069 281.54 230.839 280.56 230.35C279.581 229.861 278.743 229.13 278.127 228.225C277.51 227.32 277.136 226.273 277.039 225.182C276.942 224.092 277.126 222.995 277.574 221.996C278.102 222.344 278.563 222.785 278.933 223.297C279.352 224.045 279.817 224.766 280.323 225.458C281.4 226.66 283.222 227.087 284.857 227.02C286.491 226.952 287.98 226.598 289.542 226.499C289.153 227.759 288.386 228.868 287.345 229.677C286.303 230.485 285.038 230.953 283.722 231.018Z" fill="black"/>
<path opacity="0.1" d="M286.887 243.459C286.242 244.712 285.203 245.718 283.929 246.321C282.655 246.923 281.219 247.089 279.841 246.793C278.464 246.496 277.222 245.754 276.309 244.681C275.396 243.608 274.862 242.264 274.789 240.857C274.741 239.969 274.883 239.082 275.206 238.254C275.734 238.6 276.207 239.023 276.611 239.508C277.22 240.248 277.621 241.07 278.329 241.783C279.636 243.069 281.754 243.6 283.634 243.647C284.721 243.65 285.807 243.588 286.887 243.459Z" fill="black"/>
<path d="M174.462 175.445C173.103 172.931 174.644 169.849 176.419 167.605C178.194 165.361 180.349 163.024 180.302 160.166C180.24 156.053 175.878 153.628 172.39 151.452C169.805 149.831 167.421 147.908 165.29 145.725C164.393 144.89 163.652 143.901 163.103 142.805C162.385 141.196 162.406 139.369 162.447 137.599C162.603 131.737 162.893 125.879 163.317 120.024" stroke="#3F3D56" stroke-width="4" stroke-miterlimit="10"/>
<path d="M156.695 119.727C156.744 118.654 157.062 117.61 157.621 116.692C158.179 115.774 158.96 115.012 159.891 114.475L161.328 117.312L161.286 113.876C161.97 113.677 162.682 113.591 163.394 113.621C164.66 113.68 165.88 114.113 166.9 114.865C167.92 115.617 168.693 116.655 169.124 117.847C169.554 119.039 169.621 120.332 169.316 121.562C169.011 122.793 168.349 123.905 167.412 124.759C166.476 125.612 165.307 126.169 164.054 126.359C162.801 126.548 161.52 126.362 160.373 125.823C159.226 125.285 158.264 124.418 157.609 123.333C156.955 122.248 156.636 120.993 156.695 119.727Z" fill="#6C63FF"/>
<path d="M168.121 163.102C168.793 164.41 169.894 165.447 171.24 166.039C172.586 166.632 174.094 166.743 175.512 166.355C176.93 165.968 178.172 165.104 179.029 163.909C179.886 162.714 180.306 161.261 180.218 159.793C180.131 158.326 179.542 156.933 178.549 155.848C177.556 154.763 176.221 154.053 174.767 153.836C173.313 153.619 171.828 153.909 170.562 154.657C169.296 155.404 168.326 156.565 167.814 157.943L171.817 161.202L167.413 160.161C167.41 161.184 167.653 162.193 168.121 163.102Z" fill="#6C63FF"/>
<path d="M171.286 150.66C172.86 150.736 174.405 150.23 175.629 149.238C176.853 148.246 177.668 146.838 177.92 145.284C178.172 143.729 177.842 142.136 176.994 140.808C176.146 139.481 174.838 138.513 173.322 138.088L173.353 140.728L171.901 137.854C170.203 137.77 168.542 138.365 167.283 139.506C166.023 140.647 165.269 142.242 165.185 143.94C165.149 144.679 165.242 145.419 165.461 146.126C165.846 147.391 166.612 148.505 167.655 149.317C168.698 150.129 169.966 150.598 171.286 150.66Z" fill="#6C63FF"/>
<path d="M155.731 140.296C156.725 140.346 157.716 140.165 158.628 139.766C159.539 139.367 160.345 138.761 160.981 137.997C161.618 137.233 162.068 136.331 162.295 135.362C162.523 134.394 162.522 133.386 162.293 132.418C162.063 131.45 161.612 130.549 160.974 129.785C160.336 129.022 159.529 128.418 158.617 128.021C157.705 127.623 156.714 127.444 155.72 127.496C154.727 127.548 153.759 127.831 152.894 128.322L154.029 131.446L151.697 129.212C151.075 129.776 150.571 130.457 150.213 131.217C149.856 131.976 149.653 132.799 149.615 133.637C149.584 134.23 149.638 134.825 149.776 135.402C150.103 136.754 150.861 137.962 151.935 138.845C153.01 139.728 154.342 140.237 155.731 140.296Z" fill="#6C63FF"/>
<path opacity="0.1" d="M157.559 121.435C159.037 121.596 160.474 122.054 161.957 122.148C163.441 122.242 165.081 121.882 166.012 120.732C166.447 120.061 166.841 119.366 167.194 118.65C167.601 118.018 168.157 117.496 168.813 117.13C169.228 117.942 169.466 118.834 169.508 119.745C169.551 120.656 169.399 121.567 169.062 122.414C168.725 123.262 168.211 124.028 167.554 124.662C166.897 125.295 166.112 125.78 165.252 126.086C164.393 126.391 163.478 126.509 162.568 126.433C161.659 126.356 160.777 126.086 159.981 125.641C159.184 125.195 158.492 124.585 157.951 123.851C157.409 123.117 157.03 122.275 156.84 121.383C157.074 121.388 157.314 121.409 157.559 121.435Z" fill="black"/>
<path opacity="0.1" d="M155.732 140.296C156.836 140.346 157.935 140.111 158.921 139.612C159.908 139.113 160.749 138.367 161.362 137.447C161.975 136.527 162.341 135.464 162.422 134.362C162.504 133.259 162.299 132.154 161.827 131.154C161.318 131.497 160.879 131.936 160.536 132.445C160.153 133.175 159.729 133.882 159.266 134.564C158.272 135.735 156.564 136.126 155.018 136.048C153.472 135.969 151.978 135.527 150.437 135.397C150.224 135.397 150.005 135.366 149.792 135.36C150.11 136.717 150.862 137.933 151.934 138.824C153.006 139.715 154.339 140.231 155.732 140.296Z" fill="black"/>
<path opacity="0.1" d="M171.286 150.66C172.38 150.713 173.469 150.484 174.45 149.996C175.43 149.507 176.268 148.776 176.885 147.87C177.502 146.965 177.876 145.917 177.972 144.826C178.068 143.735 177.883 142.637 177.434 141.639C176.906 141.985 176.447 142.426 176.08 142.94C175.661 143.687 175.197 144.409 174.691 145.1C173.608 146.303 171.791 146.73 170.151 146.662C168.511 146.595 167.028 146.241 165.466 146.142C165.853 147.402 166.619 148.513 167.661 149.322C168.703 150.131 169.969 150.598 171.286 150.66Z" fill="black"/>
<path opacity="0.1" d="M168.121 163.102C168.873 164.552 170.151 165.66 171.693 166.2C173.235 166.74 174.924 166.67 176.417 166.005C177.909 165.34 179.091 164.131 179.721 162.624C180.351 161.117 180.382 159.426 179.807 157.896C179.277 158.24 178.803 158.663 178.402 159.151C177.793 159.89 177.361 160.713 176.684 161.426C175.372 162.712 173.259 163.243 171.374 163.29C170.287 163.29 169.201 163.228 168.121 163.102Z" fill="black"/>
<path d="M340.63 176.617C369.368 176.617 392.665 153.319 392.665 124.579C392.665 95.8396 369.368 72.5416 340.63 72.5416C311.892 72.5416 288.595 95.8396 288.595 124.579C288.595 153.319 311.892 176.617 340.63 176.617Z" fill="#3F3D56"/>
<path d="M362.966 138C361.155 136.188 356.798 133.455 354.637 132.435C352.144 131.237 351.228 131.258 349.463 132.534C347.995 133.575 347.042 134.58 345.356 134.21C343.669 133.84 340.327 131.321 337.094 128.098C333.862 124.876 331.353 121.555 330.994 119.842C330.634 118.129 331.623 117.197 332.675 115.729C333.945 113.964 333.982 113.048 332.774 110.555C331.733 108.394 329.031 104.047 327.204 102.225C325.377 100.403 324.981 100.804 323.982 101.184C322.953 101.615 321.965 102.138 321.03 102.746C319.218 103.959 318.203 104.969 317.49 106.489C316.777 108.009 315.97 110.831 320.119 118.218C323.18 123.869 327.056 129.038 331.623 133.559C336.16 138.137 341.347 142.021 347.016 145.085C354.398 149.25 357.225 148.422 358.745 147.714C360.265 147.006 361.275 146.001 362.482 144.174C363.091 143.239 363.614 142.251 364.044 141.222C364.387 140.223 364.793 139.817 362.966 138Z" fill="#6C63FF"/>
<path opacity="0.1" d="M340.629 72.5468C330.331 72.5416 320.263 75.5911 311.699 81.3093C303.134 87.0276 296.458 95.1577 292.515 104.671C288.572 114.185 287.539 124.654 289.546 134.755C291.554 144.856 296.513 154.134 303.794 161.416C311.076 168.698 320.354 173.657 330.454 175.664C340.554 177.672 351.023 176.639 360.536 172.696C370.049 168.752 378.179 162.076 383.897 153.511C389.615 144.946 392.664 134.877 392.659 124.579C392.652 110.781 387.168 97.5508 377.412 87.7943C367.656 78.0378 354.426 72.5537 340.629 72.5468ZM340.629 169.698C331.706 169.698 322.983 167.052 315.564 162.094C308.144 157.136 302.362 150.09 298.947 141.845C295.532 133.601 294.639 124.529 296.379 115.777C298.12 107.025 302.417 98.9851 308.727 92.6751C315.037 86.3651 323.076 82.068 331.827 80.3271C340.579 78.5861 349.651 79.4796 357.895 82.8946C366.139 86.3095 373.185 92.0925 378.143 99.5123C383.1 106.932 385.746 115.655 385.746 124.579C385.746 130.504 384.579 136.371 382.312 141.845C380.045 147.319 376.721 152.293 372.532 156.483C368.342 160.673 363.369 163.996 357.895 166.264C352.421 168.531 346.554 169.698 340.629 169.698Z" fill="black"/>
<path d="M221.083 255.657C249.821 255.657 273.118 232.359 273.118 203.619C273.118 174.88 249.821 151.582 221.083 151.582C192.345 151.582 169.048 174.88 169.048 203.619C169.048 232.359 192.345 255.657 221.083 255.657Z" fill="#3F3D56"/>
<path d="M250.676 187.898L235.096 203.749C235.068 203.776 235.047 203.807 235.032 203.842C235.017 203.877 235.009 203.914 235.009 203.952C235.009 203.99 235.017 204.028 235.032 204.063C235.047 204.098 235.068 204.129 235.096 204.155L246.028 215.78C246.289 216.044 246.467 216.378 246.539 216.743C246.611 217.107 246.573 217.484 246.432 217.827C246.29 218.17 246.05 218.464 245.742 218.671C245.434 218.878 245.071 218.99 244.7 218.992C244.201 218.991 243.722 218.793 243.367 218.44L232.493 206.857C232.437 206.803 232.363 206.772 232.285 206.772C232.207 206.772 232.132 206.803 232.077 206.857L229.427 209.533C228.342 210.642 227.046 211.524 225.616 212.126C224.186 212.727 222.65 213.037 221.098 213.037C219.517 213.029 217.953 212.707 216.498 212.088C215.043 211.47 213.726 210.567 212.623 209.434L210.078 206.831C210.022 206.776 209.947 206.746 209.869 206.746C209.792 206.746 209.717 206.776 209.661 206.831L198.813 218.388C198.638 218.563 198.431 218.702 198.203 218.796C197.974 218.891 197.73 218.94 197.483 218.94C197.236 218.94 196.991 218.891 196.763 218.796C196.535 218.702 196.327 218.563 196.153 218.388C195.977 218.214 195.838 218.007 195.743 217.778C195.648 217.55 195.599 217.305 195.599 217.058C195.599 216.811 195.648 216.566 195.743 216.338C195.838 216.109 195.977 215.902 196.153 215.728L207.043 204.129C207.091 204.073 207.118 204.001 207.118 203.926C207.118 203.852 207.091 203.78 207.043 203.723L191.462 187.872C191.422 187.831 191.371 187.804 191.316 187.793C191.26 187.782 191.202 187.787 191.15 187.809C191.097 187.831 191.052 187.868 191.021 187.915C190.99 187.962 190.973 188.018 190.973 188.075V219.794C190.977 221.02 191.466 222.195 192.333 223.062C193.2 223.929 194.375 224.418 195.601 224.422H246.548C247.774 224.418 248.949 223.929 249.816 223.062C250.683 222.195 251.172 221.02 251.176 219.794V188.101C251.178 188.042 251.163 187.983 251.131 187.933C251.099 187.884 251.052 187.845 250.998 187.823C250.943 187.801 250.883 187.796 250.825 187.809C250.767 187.823 250.715 187.853 250.676 187.898Z" fill="#6C63FF"/>
<path d="M221.083 209.273C222.139 209.283 223.186 209.081 224.163 208.679C225.139 208.276 226.025 207.682 226.767 206.93L249.458 183.832C248.653 183.165 247.641 182.797 246.595 182.791H195.612C194.565 182.794 193.553 183.162 192.749 183.832L215.445 206.93C216.181 207.677 217.058 208.27 218.027 208.672C218.995 209.074 220.034 209.279 221.083 209.273Z" fill="#6C63FF"/>
<path opacity="0.1" d="M220.427 151.587C210.129 151.582 200.061 154.631 191.497 160.349C182.932 166.068 176.256 174.198 172.313 183.711C168.369 193.225 167.336 203.694 169.344 213.795C171.352 223.896 176.31 233.174 183.592 240.456C190.874 247.738 200.152 252.697 210.252 254.705C220.352 256.712 230.821 255.679 240.334 251.736C249.847 247.792 257.977 241.116 263.695 232.551C269.413 223.986 272.462 213.918 272.457 203.619C272.45 189.822 266.966 176.591 257.21 166.834C247.454 157.078 234.224 151.594 220.427 151.587ZM220.427 248.738C211.504 248.738 202.781 246.092 195.361 241.134C187.942 236.177 182.159 229.13 178.745 220.885C175.33 212.641 174.436 203.569 176.177 194.817C177.918 186.065 182.215 178.025 188.525 171.715C194.834 165.405 202.873 161.108 211.625 159.367C220.377 157.626 229.449 158.52 237.693 161.935C245.937 165.35 252.983 171.133 257.94 178.552C262.898 185.972 265.544 194.696 265.544 203.619C265.544 215.585 260.791 227.062 252.33 235.523C243.868 243.985 232.393 248.738 220.427 248.738Z" fill="black"/>
<path d="M97.5906 216.795C126.329 216.795 149.626 193.497 149.626 164.758C149.626 136.018 126.329 112.72 97.5906 112.72C68.8523 112.72 45.5554 136.018 45.5554 164.758C45.5554 193.497 68.8523 216.795 97.5906 216.795Z" fill="#3F3D56"/>
<path d="M97.5904 139.858L76.8461 187.721L78.7826 189.657L97.5956 181.359L116.409 189.657L118.345 187.721L97.5904 139.858Z" fill="#6C63FF"/>
<path opacity="0.1" d="M97.5902 112.705C87.2934 112.699 77.2263 115.748 68.6624 121.465C60.0984 127.182 53.4222 135.311 49.4782 144.823C45.5342 154.335 44.4996 164.803 46.5053 174.903C48.5109 185.003 53.4667 194.281 60.7458 201.565C68.025 208.848 77.3004 213.808 87.399 215.819C97.4976 217.83 107.966 216.8 117.479 212.861C126.993 208.922 135.124 202.249 140.845 193.688C146.566 185.126 149.62 175.06 149.62 164.763C149.62 150.961 144.139 137.723 134.382 127.961C124.626 118.199 111.392 112.711 97.5902 112.705ZM97.5902 209.856C88.6658 209.856 79.9419 207.209 72.5219 202.25C65.1019 197.291 59.3191 190.243 55.9051 181.997C52.4911 173.751 51.5992 164.678 53.3421 155.925C55.0851 147.172 59.3846 139.133 65.6969 132.824C72.0093 126.515 80.0508 122.22 88.8043 120.482C97.5578 118.744 106.63 119.641 114.874 123.06C123.117 126.479 130.162 132.266 135.116 139.689C140.071 147.112 142.712 155.838 142.707 164.763C142.706 176.728 137.952 188.203 129.491 196.663C121.03 205.124 109.555 209.877 97.5902 209.877V209.856Z" fill="black"/>
<path d="M345.418 230.294C344.946 229.142 344.462 227.993 343.966 226.848C343.557 225.73 342.956 224.692 342.191 223.781C341.9 223.454 341.546 223.188 341.15 223.001C340.714 222.84 340.255 222.748 339.791 222.73C339.083 222.641 338.368 222.621 337.657 222.673C337.381 222.589 337.068 222.48 336.761 222.355C338.301 221.95 339.671 221.062 340.668 219.82C341.665 218.578 342.237 217.049 342.3 215.457C342.3 215.353 342.3 215.244 342.3 215.14C342.304 214.166 342.116 213.2 341.747 212.298C341.378 211.397 340.835 210.577 340.149 209.885C339.463 209.193 338.648 208.643 337.75 208.267C336.851 207.89 335.887 207.694 334.913 207.69C333.542 207.688 332.198 208.072 331.035 208.799C329.5 208.451 327.892 208.633 326.473 209.317C325.055 210.001 323.911 211.145 323.227 212.563C322.364 213.388 321.683 214.383 321.226 215.485C320.769 216.588 320.546 217.773 320.572 218.966C320.572 219.075 320.572 219.19 320.572 219.294C320.707 223.339 323.32 226.582 326.621 226.91C326.268 227.069 325.944 227.285 325.663 227.55C324.653 228.524 324.486 230.07 324.377 231.476L324.299 232.517L322.55 233.141C322.494 233.161 322.445 233.196 322.408 233.242C322.371 233.288 322.347 233.343 322.339 233.401C322.331 233.46 322.339 233.52 322.362 233.574C322.386 233.628 322.424 233.675 322.472 233.709L324.143 234.901C324.143 235 324.143 235.099 324.143 235.198C324.143 235.297 324.143 235.422 324.174 235.536C323.889 235.788 323.667 236.103 323.529 236.458C323.366 237.004 323.315 237.578 323.378 238.144L323.44 239.597C323.432 240.69 323.581 241.779 323.883 242.83C324.101 243.475 325.049 245.032 325.731 245.042C325.101 247.905 324.934 253.944 324.934 253.944C324.856 254.022 325.075 254.095 325.455 254.157C325.829 257.031 327.053 265.09 329.224 268.635C329.565 269.791 329.838 270.966 330.041 272.154C330.041 272.154 330.66 279.812 331.478 282.087C332.175 284.023 332.727 288.802 332.878 290.187C332.736 290.223 332.608 290.298 332.506 290.403C332.404 290.507 332.333 290.638 332.3 290.78C331.889 292.019 329.224 293.904 329.224 293.904C328.407 294.312 327.635 294.806 326.923 295.377C326.085 296.132 326.116 296.814 329.838 296.387C337.021 295.559 338.25 293.264 338.25 293.264C338.25 293.264 338.135 292.878 337.964 292.379C337.744 291.601 337.428 290.854 337.021 290.156C336.917 290.057 336.813 290.223 336.688 290.484C336.146 287.162 335.982 283.79 336.199 280.431C336.199 280.431 336.402 276.912 335.377 274.429C335.148 273.129 335.148 271.799 335.377 270.499C335.788 268.843 333.737 260.769 333.737 260.769L332.56 254.824C332.721 255.027 332.833 255.264 332.888 255.516L332.919 255.636L332.951 255.808C332.962 255.868 332.991 255.924 333.034 255.969C333.836 259.301 336.032 268.531 336.032 269.884C336.032 271.54 338.083 275.678 338.083 275.678C338.083 275.678 338.901 282.508 340.337 285.195C341.431 287.24 341.457 290.239 341.405 291.561C341.405 291.561 341.16 293.264 340.749 293.675C340.422 294.081 340.16 294.536 339.973 295.023L339.926 295.122C339.926 295.122 339.312 296.366 339.723 296.575C341.287 297.188 342.98 297.401 344.648 297.194C344.648 297.194 345.47 296.153 345.47 295.747C345.453 295.499 345.422 295.252 345.376 295.008C345.225 294.029 344.944 292.488 344.939 292.472C345.111 291.806 344.419 289.953 344.419 289.953L344.21 284.159C344.592 280.235 344.101 276.277 342.774 272.565C342.774 272.565 341.733 268.843 341.956 267.807C342.18 266.771 341.545 255.802 341.545 255.802L341.483 255.646C341.427 254.87 341.448 254.091 341.545 253.319C341.748 250.836 340.931 245.662 340.723 245.458C340.553 244.902 340.455 244.327 340.431 243.746C340.478 243.314 340.619 242.049 340.811 240.477C342.835 240.407 344.854 240.234 346.86 239.956C347.054 239.956 347.24 239.881 347.381 239.748C347.463 239.623 347.505 239.476 347.5 239.326C347.74 236.208 346.6 233.178 345.418 230.294ZM341.29 236.858C341.503 235.375 341.733 233.938 341.962 232.871L341.993 232.964C342.387 234.037 342.717 235.132 342.982 236.244C342.435 236.494 341.87 236.7 341.29 236.858Z" fill="url(#paint0_linear_1071_8)"/>
<path d="M325.346 253.616C325.346 253.616 326.574 264.668 329.234 268.963C329.576 270.105 329.849 271.266 330.052 272.44C330.052 272.44 330.666 280.01 331.483 282.258C332.3 284.507 332.915 290.65 332.915 290.65C332.915 290.65 335.778 293.92 336.803 291.265C336.159 287.757 335.953 284.183 336.189 280.624C336.189 280.624 336.392 277.146 335.372 274.689C335.143 273.405 335.143 272.09 335.372 270.806C335.778 269.166 333.732 261.19 333.732 261.19L332.097 253.21L325.346 253.616Z" fill="#BE6F72"/>
<path d="M338.235 293.311C338.235 293.311 337.006 295.559 329.849 296.377C326.132 296.798 326.106 296.127 326.944 295.377C327.654 294.813 328.422 294.324 329.234 293.92C329.234 293.92 331.894 292.082 332.3 290.853C332.706 289.625 334.143 290.65 334.143 290.65C336.189 293.717 336.6 289.828 337.006 290.239C337.414 290.926 337.73 291.663 337.948 292.431C338.12 292.925 338.235 293.311 338.235 293.311Z" fill="#FF6F61"/>
<path opacity="0.1" d="M338.235 293.31C338.235 293.31 337.006 295.559 329.849 296.377C326.132 296.798 326.106 296.127 326.944 295.377C327.527 295.747 328.703 295.898 331.072 294.945C334.482 293.55 336.954 292.743 337.948 292.431C338.12 292.925 338.235 293.31 338.235 293.31Z" fill="black"/>
<path opacity="0.1" d="M336.189 280.624C336.189 280.624 336.392 277.146 335.371 274.689C335.143 273.405 335.143 272.09 335.371 270.806C335.777 269.166 333.732 261.19 333.732 261.19L332.097 253.21L330.681 253.293L332.3 261.19C332.3 261.19 334.346 269.166 333.94 270.806C333.712 272.09 333.712 273.405 333.94 274.689C334.981 277.146 334.757 280.624 334.757 280.624C334.521 284.183 334.727 287.757 335.371 291.265C335.26 291.598 335.054 291.891 334.778 292.108C335.538 292.452 336.34 292.436 336.803 291.265C336.159 287.757 335.953 284.183 336.189 280.624Z" fill="black"/>
<path d="M334.856 208.711C333.491 208.708 332.153 209.088 330.994 209.809C329.463 209.456 327.858 209.631 326.44 210.307C325.022 210.983 323.875 212.12 323.185 213.531C322.327 214.343 321.648 215.326 321.191 216.416C320.735 217.506 320.512 218.68 320.536 219.861C320.536 224.214 323.467 227.738 327.079 227.738C329.682 227.738 331.962 225.885 333.008 223.204C333.61 223.363 334.229 223.443 334.851 223.443C336.805 223.443 338.678 222.667 340.06 221.286C341.441 219.904 342.217 218.03 342.217 216.077C342.217 214.123 341.441 212.25 340.06 210.868C338.678 209.487 336.805 208.711 334.851 208.711H334.856Z" fill="#3F3D56"/>
<path d="M340.895 254.642L341.509 256.276C341.509 256.276 342.124 267.12 341.915 268.146C341.707 269.171 342.738 272.831 342.738 272.831C344.061 276.494 344.55 280.407 344.169 284.284L344.372 290.01C344.372 290.01 345.19 292.259 344.784 292.67C344.378 293.081 341.291 292.306 341.291 292.306C341.291 292.306 341.702 288.011 340.249 285.351C338.797 282.691 338.001 275.939 338.001 275.939C338.001 275.939 335.955 271.847 335.955 270.212C335.955 268.578 332.681 255.277 332.681 255.277L340.895 254.642Z" fill="#BE6F72"/>
<path d="M324.935 254.439C324.935 254.439 325.143 247.072 325.976 244.823C326.4 243.773 326.705 242.678 326.887 241.559C326.887 241.559 339.271 243.798 340.296 242.981C340.296 242.981 340.499 245.844 340.708 246.047C340.916 246.25 341.749 251.367 341.525 253.824C341.301 256.281 341.525 256.276 341.525 256.276C341.525 256.276 333.133 257.505 332.93 256.276C332.727 255.048 332.113 255.053 332.113 255.053C332.113 255.053 324.529 254.824 324.935 254.439Z" fill="#3F3D56"/>
<g opacity="0.1">
<path opacity="0.1" d="M331.686 254.439C331.686 254.439 326.511 254.298 324.95 254.017C324.95 254.282 324.95 254.439 324.95 254.439C324.544 254.845 332.113 255.053 332.113 255.053C332.216 255.062 332.313 255.102 332.394 255.167C332.118 254.438 331.686 254.439 331.686 254.439Z" fill="black"/>
<path opacity="0.1" d="M340.691 246.047C340.483 245.844 340.28 242.98 340.28 242.98C340.174 243.046 340.055 243.089 339.931 243.105C340.004 243.97 340.145 245.297 340.28 245.432C340.416 245.568 341.321 250.753 341.098 253.21C340.874 255.667 341.098 255.662 341.098 255.662C341.098 255.662 334.46 256.635 332.852 255.985C332.852 256.073 332.899 256.172 332.914 256.276C333.117 257.505 341.509 256.276 341.509 256.276C341.509 256.276 341.301 256.276 341.509 253.824C341.717 251.372 340.894 246.255 340.691 246.047Z" fill="black"/>
</g>
<path d="M333.951 221.6C334.127 221.994 334.394 222.34 334.731 222.61C334.948 222.771 335.199 222.88 335.465 222.928C335.007 223.193 334.508 223.391 334.049 223.656C333.329 224.141 332.634 224.662 331.967 225.218C331.286 225.766 330.451 226.09 329.578 226.145C329.884 225.732 330.076 225.245 330.135 224.735C330.193 224.224 330.116 223.706 329.911 223.235C329.724 222.926 329.6 222.582 329.547 222.225C329.547 221.637 330.067 221.184 330.551 220.871C330.942 220.606 331.343 220.351 331.749 220.096C332.066 219.898 332.545 219.481 332.946 219.497C333.347 219.513 333.394 219.867 333.466 220.231C333.57 220.706 333.732 221.166 333.951 221.6Z" fill="#BE6F72"/>
<path opacity="0.1" d="M333.951 221.6C334.127 221.994 334.394 222.34 334.731 222.61C334.948 222.771 335.199 222.88 335.465 222.928C335.007 223.193 334.508 223.391 334.049 223.656C333.329 224.141 332.634 224.662 331.967 225.218C331.286 225.766 330.451 226.09 329.578 226.145C329.884 225.732 330.076 225.245 330.135 224.735C330.193 224.224 330.116 223.706 329.911 223.235C329.724 222.926 329.6 222.582 329.547 222.225C329.547 221.637 330.067 221.184 330.551 220.871C330.942 220.606 331.343 220.351 331.749 220.096C332.066 219.898 332.545 219.481 332.946 219.497C333.347 219.513 333.394 219.867 333.466 220.231C333.57 220.706 333.732 221.166 333.951 221.6Z" fill="black"/>
<path d="M338.745 233.673C341.344 233.673 343.451 231.566 343.451 228.966C343.451 226.367 341.344 224.26 338.745 224.26C336.146 224.26 334.039 226.367 334.039 228.966C334.039 231.566 336.146 233.673 338.745 233.673Z" fill="#BE6F72"/>
<path d="M345.393 295.762C345.393 296.174 344.575 297.194 344.575 297.194C342.913 297.398 341.227 297.187 339.667 296.58C339.255 296.377 339.87 295.148 339.87 295.148L339.916 295.049C340.104 294.567 340.366 294.118 340.692 293.717C341.098 293.31 341.343 291.634 341.343 291.634C342.613 289.552 344.867 292.535 344.867 292.535C344.867 292.535 345.153 294.097 345.304 295.044C345.356 295.382 345.393 295.658 345.393 295.762Z" fill="#FF6F61"/>
<path opacity="0.1" d="M345.393 295.762C345.393 296.174 344.575 297.194 344.575 297.194C342.913 297.398 341.227 297.187 339.667 296.58C339.255 296.377 339.87 295.148 339.87 295.148L339.916 295.049C341.31 295.697 342.836 296.01 344.372 295.965L345.304 295.034C345.356 295.382 345.393 295.658 345.393 295.762Z" fill="black"/>
<path d="M329.333 223.745C331.875 223.745 333.935 221.685 333.935 219.143C333.935 216.601 331.875 214.541 329.333 214.541C326.792 214.541 324.731 216.601 324.731 219.143C324.731 221.685 326.792 223.745 329.333 223.745Z" fill="#BE6F72"/>
<path d="M325.622 228.347C324.612 229.31 324.445 230.835 324.341 232.225L324.185 234.261C324.129 234.809 324.117 235.361 324.149 235.911C324.149 236.249 324.232 236.593 324.263 236.952C324.294 237.311 324.305 237.764 324.31 238.176V241.184C324.261 241.805 324.376 242.428 324.643 242.991C324.786 243.263 325.026 243.472 325.315 243.576C325.604 243.68 325.921 243.672 326.205 243.553C326.528 243.304 326.756 242.951 326.85 242.554C327.358 241.333 327.708 240.052 327.892 238.743C327.933 238.29 327.938 237.837 327.98 237.384C328.022 236.931 328.1 236.458 328.167 235.999C328.459 234.084 328.589 232.147 328.719 230.216C328.756 229.643 329.271 227.389 328.521 227.139C328.157 227.019 327.402 227.394 327.053 227.519C326.525 227.696 326.038 227.977 325.622 228.347Z" fill="#BE6F72"/>
<path opacity="0.1" d="M325.622 228.347C324.612 229.31 324.445 230.835 324.341 232.225L324.185 234.261C324.129 234.809 324.117 235.361 324.149 235.911C324.149 236.249 324.232 236.593 324.263 236.952C324.294 237.311 324.305 237.764 324.31 238.176V241.184C324.261 241.805 324.376 242.428 324.643 242.991C324.786 243.263 325.026 243.472 325.315 243.576C325.604 243.68 325.921 243.672 326.205 243.553C326.528 243.304 326.756 242.951 326.85 242.554C327.358 241.333 327.708 240.052 327.892 238.743C327.933 238.29 327.938 237.837 327.98 237.384C328.022 236.931 328.1 236.458 328.167 235.999C328.459 234.084 328.589 232.147 328.719 230.216C328.756 229.643 329.271 227.389 328.521 227.139C328.157 227.019 327.402 227.394 327.053 227.519C326.525 227.696 326.038 227.977 325.622 228.347Z" fill="black"/>
<path d="M335.163 222.11C335.163 222.11 331.686 224.771 329.64 225.385C329.64 225.385 328.427 226.77 328.219 227.103C328.011 227.436 327.594 231.111 327.178 231.934C326.761 232.756 325.746 234.594 327.178 236.432C327.178 236.432 327.584 238.274 327.381 238.889C327.178 239.503 326.433 241.752 327.11 241.856C327.787 241.96 329.838 243.387 331.675 242.981C333.513 242.574 340.374 244.542 340.374 244.542C340.374 244.542 341.509 234 342.331 232.137L340.489 231.523C340.489 231.523 335.377 228.456 338.443 223.75C338.438 223.75 335.564 223.136 335.163 222.11Z" fill="#FF6F61"/>
<path d="M322.467 234.433L326.694 237.426C326.747 237.465 326.812 237.486 326.878 237.486C326.945 237.486 327.01 237.465 327.063 237.426L328.208 236.567C328.244 236.537 328.272 236.499 328.291 236.457C328.311 236.415 328.321 236.369 328.321 236.322C328.321 236.276 328.311 236.23 328.291 236.188C328.272 236.145 328.244 236.108 328.208 236.078L324.955 233.188C324.913 233.15 324.861 233.124 324.805 233.113C324.749 233.102 324.691 233.106 324.637 233.126L322.55 233.876C322.495 233.894 322.446 233.928 322.409 233.973C322.372 234.017 322.348 234.071 322.339 234.129C322.331 234.186 322.338 234.245 322.36 234.298C322.383 234.352 322.42 234.398 322.467 234.433Z" fill="#3F3D56"/>
<path d="M323.888 243.449C323.589 242.412 323.44 241.337 323.446 240.258L323.383 238.816C323.32 238.256 323.372 237.689 323.534 237.15C323.694 236.78 323.935 236.45 324.238 236.185C324.542 235.919 324.9 235.724 325.288 235.614C326.065 235.399 326.878 235.34 327.678 235.443C327.786 235.443 327.892 235.472 327.985 235.526C328.066 235.601 328.124 235.699 328.151 235.807C328.27 236.038 328.339 236.291 328.355 236.549C328.371 236.808 328.334 237.068 328.245 237.311C328.124 237.51 327.961 237.679 327.766 237.806C327.199 238.212 326.538 238.483 326.001 238.925C325.893 238.999 325.809 239.104 325.762 239.227C325.736 239.335 325.736 239.447 325.762 239.555C325.829 239.842 325.919 240.122 326.033 240.393C326.079 240.53 326.159 240.652 326.267 240.747C326.366 240.831 326.496 240.862 326.6 240.94C326.824 241.122 327.292 241.362 327.266 241.648C327.188 242.689 326.564 243.855 326.319 244.886C325.851 246.901 324.19 244.329 323.888 243.449Z" fill="#BE6F72"/>
<g opacity="0.1">
<path opacity="0.1" d="M330.463 242.981H330.348C330.79 243.066 331.244 243.066 331.686 242.981H331.816C331.367 242.915 330.911 242.915 330.463 242.981Z" fill="black"/>
<path opacity="0.1" d="M341.202 231.83C340.468 233.48 339.385 242.418 339.192 244.193C339.911 244.381 340.384 244.516 340.384 244.516C340.384 244.516 341.509 234 342.331 232.137L341.202 231.83Z" fill="black"/>
</g>
<path d="M338.907 229.112C338.945 229.318 339.024 229.514 339.139 229.688C339.255 229.862 339.404 230.012 339.578 230.127C340.013 230.492 340.412 230.896 340.77 231.335C341.285 232.059 341.683 232.858 341.952 233.704C342.342 234.763 342.671 235.844 342.936 236.942C340.333 238.15 337.376 238.092 334.607 238.889C333.414 239.203 332.333 239.843 331.483 240.737C331.06 241.186 330.738 241.721 330.539 242.306C330.341 242.891 330.27 243.511 330.333 244.126C330.337 244.198 330.358 244.267 330.395 244.329C330.441 244.38 330.497 244.42 330.56 244.445C330.624 244.47 330.692 244.48 330.76 244.475C331.452 244.474 332.124 244.243 332.67 243.819C333.21 243.396 333.701 242.914 334.133 242.382C334.401 242.033 334.762 241.766 335.174 241.611C336.679 241.153 338.297 241.179 339.859 241.153C342.195 241.108 344.526 240.923 346.84 240.601C346.924 240.612 347.01 240.602 347.09 240.574C347.171 240.547 347.244 240.501 347.304 240.441C347.364 240.381 347.41 240.308 347.437 240.227C347.465 240.147 347.475 240.061 347.465 239.977C347.694 236.905 346.554 233.907 345.382 231.059C344.914 229.917 344.431 228.781 343.935 227.649C343.526 226.544 342.927 225.518 342.165 224.62C341.876 224.293 341.521 224.03 341.124 223.849C340.676 223.688 340.205 223.6 339.729 223.589C338.971 223.487 338.205 223.473 337.444 223.547C337.322 223.931 337.249 224.327 337.225 224.729C337.267 226.134 337.881 227.452 338.485 228.722C338.563 228.914 338.787 228.925 338.907 229.112Z" fill="#BE6F72"/>
<path opacity="0.1" d="M330.572 231.746C330.22 232.349 330.04 233.037 330.051 233.735C330.053 234.011 330.096 234.285 330.181 234.547C330.324 234.915 330.547 235.247 330.834 235.517C331.121 235.787 331.466 235.99 331.842 236.109" stroke="black" stroke-miterlimit="10"/>
<path d="M333.222 214.645C332.965 214.644 332.71 214.685 332.467 214.765C331.785 213.724 330.182 213.005 328.302 213.005C325.814 213.005 323.8 214.291 323.8 215.874C323.8 217.456 325.814 218.737 328.302 218.737C329.234 218.747 330.157 218.552 331.004 218.164C331.195 218.559 331.488 218.895 331.852 219.138C332.217 219.381 332.64 219.521 333.077 219.545C333.514 219.569 333.95 219.476 334.339 219.274C334.728 219.073 335.056 218.771 335.289 218.4C335.521 218.029 335.65 217.602 335.662 217.164C335.674 216.726 335.569 216.293 335.357 215.91C335.145 215.527 334.834 215.207 334.457 214.985C334.079 214.762 333.649 214.645 333.211 214.645H333.222Z" fill="#3F3D56"/>
<path opacity="0.1" d="M333.424 218.94C332.963 218.94 332.511 218.81 332.12 218.564C331.73 218.318 331.417 217.966 331.217 217.55C330.37 217.937 329.447 218.133 328.516 218.123C326.032 218.123 324.018 216.842 324.018 215.259C324.01 215.164 324.01 215.068 324.018 214.973C323.87 215.25 323.791 215.559 323.789 215.874C323.789 217.435 325.803 218.737 328.292 218.737C329.223 218.747 330.146 218.552 330.993 218.164C331.218 218.629 331.583 219.011 332.037 219.257C332.491 219.502 333.011 219.597 333.522 219.53C334.034 219.462 334.511 219.235 334.886 218.881C335.261 218.526 335.515 218.062 335.611 217.555C335.413 217.968 335.103 218.316 334.716 218.561C334.33 218.806 333.882 218.937 333.424 218.94Z" fill="black"/>
<path opacity="0.1" d="M323.191 214.739C323.88 213.327 325.027 212.191 326.445 211.515C327.863 210.839 329.468 210.663 330.999 211.017C332.07 210.355 333.293 209.98 334.55 209.926C335.808 209.872 337.058 210.141 338.182 210.708C339.306 211.276 340.266 212.121 340.969 213.165C341.673 214.209 342.097 215.416 342.201 216.67C342.201 216.467 342.201 216.264 342.201 216.056C342.199 214.747 341.847 213.462 341.182 212.334C340.517 211.206 339.563 210.276 338.419 209.639C337.275 209.003 335.982 208.683 334.673 208.713C333.364 208.743 332.087 209.121 330.973 209.809C329.442 209.456 327.837 209.631 326.419 210.307C325.001 210.983 323.854 212.119 323.165 213.531C322.306 214.343 321.627 215.326 321.17 216.416C320.714 217.506 320.491 218.68 320.515 219.861C320.515 220.07 320.515 220.273 320.515 220.476C320.617 218.286 321.579 216.225 323.191 214.739Z" fill="black"/>
<path d="M370.124 216.301C371.483 213.786 369.942 210.699 368.167 208.455C366.392 206.212 364.237 203.88 364.283 201.016C364.346 196.909 368.708 194.483 372.196 192.302C374.781 190.681 377.165 188.759 379.296 186.575C380.192 185.739 380.932 184.75 381.483 183.655C382.201 182.046 382.18 180.219 382.139 178.449C381.986 172.584 381.696 166.726 381.269 160.874" stroke="#3F3D56" stroke-width="4" stroke-miterlimit="10"/>
<path d="M387.891 160.562C387.842 159.489 387.523 158.446 386.964 157.529C386.406 156.612 385.625 155.85 384.695 155.314L383.258 158.151L383.3 154.716C382.617 154.512 381.904 154.425 381.192 154.461C379.926 154.52 378.705 154.953 377.685 155.705C376.666 156.458 375.892 157.496 375.462 158.688C375.032 159.881 374.965 161.174 375.27 162.404C375.575 163.634 376.238 164.747 377.176 165.6C378.113 166.454 379.282 167.01 380.535 167.199C381.789 167.388 383.07 167.201 384.217 166.661C385.364 166.122 386.325 165.255 386.979 164.169C387.633 163.083 387.951 161.828 387.891 160.562Z" fill="#6C63FF"/>
<path d="M376.465 203.942C375.793 205.249 374.692 206.286 373.346 206.878C372 207.47 370.492 207.581 369.074 207.193C367.656 206.805 366.415 205.941 365.558 204.746C364.702 203.552 364.282 202.099 364.369 200.631C364.456 199.164 365.046 197.771 366.038 196.686C367.03 195.602 368.365 194.891 369.819 194.674C371.273 194.457 372.757 194.746 374.023 195.493C375.289 196.24 376.26 197.4 376.772 198.778L372.769 202.037L377.173 200.996C377.177 202.02 376.934 203.031 376.465 203.942Z" fill="#6C63FF"/>
<path d="M373.3 191.495C371.726 191.571 370.18 191.064 368.957 190.072C367.733 189.081 366.918 187.673 366.666 186.118C366.414 184.563 366.744 182.97 367.592 181.643C368.44 180.316 369.747 179.347 371.264 178.923L371.233 181.562L372.685 178.694C374.383 178.616 376.043 179.215 377.299 180.36C378.555 181.505 379.305 183.102 379.385 184.8C379.425 185.641 379.299 186.481 379.013 187.273C378.728 188.065 378.29 188.793 377.723 189.415C377.157 190.037 376.473 190.542 375.711 190.899C374.949 191.257 374.125 191.461 373.284 191.5L373.3 191.495Z" fill="#6C63FF"/>
<path d="M388.854 181.146C387.86 181.196 386.869 181.015 385.958 180.616C385.046 180.217 384.241 179.611 383.604 178.847C382.967 178.083 382.517 177.181 382.29 176.212C382.062 175.244 382.063 174.236 382.292 173.268C382.522 172.3 382.973 171.399 383.611 170.636C384.249 169.872 385.056 169.268 385.968 168.871C386.88 168.473 387.871 168.294 388.865 168.346C389.858 168.398 390.826 168.681 391.691 169.172L390.556 172.296L392.888 170.057C393.509 170.621 394.013 171.303 394.37 172.062C394.728 172.821 394.932 173.644 394.97 174.482C395.001 175.075 394.947 175.669 394.809 176.247C394.482 177.599 393.725 178.809 392.65 179.692C391.576 180.576 390.243 181.086 388.854 181.146Z" fill="#6C63FF"/>
<path opacity="0.1" d="M387.032 162.269C385.554 162.436 384.112 162.894 382.628 162.988C381.144 163.081 379.505 162.722 378.573 161.567C378.138 160.897 377.743 160.201 377.391 159.484C376.985 158.854 376.431 158.332 375.778 157.964C375.362 158.777 375.125 159.668 375.082 160.58C375.039 161.491 375.191 162.401 375.528 163.249C375.865 164.097 376.38 164.863 377.037 165.496C377.694 166.129 378.478 166.615 379.338 166.92C380.198 167.226 381.113 167.344 382.022 167.267C382.931 167.19 383.814 166.92 384.61 166.475C385.406 166.03 386.098 165.42 386.64 164.685C387.182 163.951 387.56 163.11 387.75 162.217C387.511 162.228 387.271 162.243 387.032 162.269Z" fill="black"/>
<path opacity="0.1" d="M388.854 181.146C387.75 181.196 386.651 180.961 385.664 180.462C384.678 179.963 383.837 179.217 383.224 178.297C382.61 177.377 382.245 176.314 382.164 175.212C382.082 174.109 382.287 173.004 382.758 172.004C383.268 172.345 383.706 172.782 384.049 173.29C384.43 174.021 384.854 174.729 385.32 175.409C386.314 176.585 388.021 176.971 389.567 176.898C391.113 176.825 392.607 176.377 394.148 176.247C394.362 176.247 394.58 176.21 394.794 176.205C394.476 177.563 393.724 178.78 392.652 179.671C391.58 180.563 390.247 181.08 388.854 181.146Z" fill="black"/>
<path opacity="0.1" d="M373.299 191.495C372.204 191.548 371.113 191.32 370.132 190.831C369.15 190.342 368.311 189.609 367.693 188.702C367.076 187.796 366.703 186.746 366.608 185.653C366.513 184.561 366.7 183.462 367.152 182.463C367.677 182.812 368.135 183.253 368.505 183.764C369.026 184.467 369.312 185.279 369.895 185.925C370.978 187.132 372.794 187.554 374.434 187.518C376.074 187.481 377.558 187.091 379.119 186.971C378.733 188.232 377.967 189.344 376.925 190.153C375.883 190.963 374.617 191.432 373.299 191.495Z" fill="black"/>
<path opacity="0.1" d="M376.464 203.942C375.7 205.372 374.423 206.459 372.889 206.985C371.356 207.511 369.68 207.437 368.199 206.777C366.718 206.117 365.542 204.921 364.907 203.429C364.272 201.938 364.226 200.261 364.778 198.736C365.307 199.081 365.781 199.504 366.183 199.991C366.798 200.735 367.198 201.552 367.901 202.271C369.213 203.557 371.326 204.082 373.211 204.135C374.298 204.133 375.384 204.069 376.464 203.942Z" fill="black"/>
<path d="M183.561 221.98C183.567 221.182 183.387 220.393 183.033 219.677C182.68 218.961 182.163 218.337 181.525 217.857C181.517 216.446 181.011 215.082 180.096 214.008C179.18 212.933 177.915 212.217 176.523 211.985C176.307 210.959 175.826 210.008 175.127 209.226C174.428 208.445 173.536 207.861 172.54 207.534C172.299 207.458 172.051 207.401 171.801 207.362H171.728H171.598H171.494H171.379H171.239H170.921C169.538 207.394 168.211 207.914 167.174 208.831C166.138 209.748 165.459 211.001 165.258 212.37C163.431 211.949 161.76 212.495 161.452 213.651C161.375 213.958 161.394 214.281 161.504 214.577C161.817 215.473 162.832 216.332 164.191 216.753L164.368 216.806L164.633 216.873H164.69C164.4 217.49 164.251 218.164 164.253 218.846C164.249 219.683 164.475 220.505 164.908 221.221C165.34 221.938 165.962 222.521 166.705 222.907L166.585 222.98C166.416 223.134 166.281 223.322 166.189 223.532C165.861 224.113 165.604 224.731 165.424 225.374C165.294 225.926 165.273 226.499 165.112 227.045C164.81 228.05 164.04 228.899 163.951 229.945C163.909 230.414 163.988 230.986 163.654 231.288C163.572 231.359 163.483 231.422 163.389 231.476C163.158 231.639 162.962 231.846 162.811 232.085C162.711 232.302 162.574 232.499 162.405 232.668C162.103 232.892 161.609 232.871 161.463 233.22C161.317 233.568 161.697 233.98 161.609 234.36C161.52 234.74 161.197 234.813 160.963 235.026C160.691 235.319 160.499 235.678 160.406 236.067C159.913 236.161 159.406 236.146 158.92 236.021C158.435 235.897 157.982 235.668 157.595 235.349C157.728 235.685 157.825 236.034 157.887 236.39C157.434 236.044 156.92 235.786 156.372 235.63C155.755 235.349 155.205 234.941 154.758 234.433L155.622 234.313L151.806 228.487L150.677 228.253L151.687 230.195C151.602 230.233 151.528 230.29 151.468 230.362C151.409 230.433 151.366 230.516 151.343 230.606C151.289 230.822 151.277 231.047 151.307 231.267C151.358 231.793 151.445 232.315 151.567 232.829L151.858 234.193C151.884 234.318 151.916 234.448 151.952 234.573C151.571 234.554 151.19 234.597 150.823 234.698C150.066 234.417 149.277 234.23 148.475 234.141C148.303 234.106 148.126 234.106 147.954 234.141C147.76 234.233 147.59 234.371 147.46 234.542C146.803 235.304 146.219 236.127 145.716 236.999C143.634 240.57 140.921 243.688 138.355 246.916C136.585 247.635 134.8 248.316 133.014 248.998L129.172 250.466C128.423 250.806 127.611 250.984 126.788 250.987C126.424 250.987 125.971 250.909 125.747 251.221C125.647 251.384 125.568 251.559 125.513 251.742L125.117 251.784C124.935 251.158 124.621 250.58 124.196 250.086C124.102 250.103 124.014 250.141 123.938 250.199C123.863 250.257 123.803 250.333 123.764 250.42C123.67 250.591 123.613 250.779 123.504 250.94C123.301 251.242 122.941 251.388 122.686 251.643C122.431 251.898 122.27 252.294 121.989 252.554C121.605 252.838 121.155 253.017 120.682 253.075C119.969 253.241 119.281 253.502 118.636 253.85C118.4 253.998 118.147 254.115 117.882 254.199C117.588 254.256 117.288 254.267 116.991 254.23L114.961 254.079C114.779 254.057 114.594 254.065 114.415 254.105C114.211 254.188 114.038 254.334 113.923 254.521C113.807 254.708 113.753 254.927 113.769 255.147C113.795 255.367 113.866 255.58 113.977 255.772C114.088 255.965 114.237 256.133 114.415 256.266C114.766 256.525 115.156 256.727 115.57 256.864C117.327 257.548 119.138 258.085 120.984 258.468V258.879C122.276 259.53 123.702 259.869 125.149 259.868C125.256 259.875 125.363 259.856 125.461 259.811C125.594 259.712 125.686 259.567 125.721 259.405C126.153 258.114 126.426 256.775 126.533 255.417C126.787 255.4 127.036 255.337 127.267 255.23C127.965 255.037 128.662 255.516 129.386 255.594C130.276 255.693 131.099 255.173 131.942 254.855L132.306 254.735C132.066 255.044 131.782 255.316 131.463 255.542C131.114 255.792 130.724 255.979 130.385 256.24C130.099 256.499 129.793 256.736 129.469 256.948C129.241 257.053 129.006 257.144 128.766 257.218C128.412 257.35 128.074 257.525 127.762 257.739C127.485 257.904 127.251 258.132 127.08 258.405C126.994 258.545 126.944 258.703 126.934 258.867C126.924 259.03 126.955 259.194 127.023 259.342C127.095 259.464 127.192 259.569 127.308 259.649C127.423 259.73 127.555 259.785 127.694 259.811C127.968 259.853 128.247 259.853 128.522 259.811C129.625 259.728 130.724 259.629 131.822 259.53C132.286 259.5 132.748 259.434 133.202 259.332C133.441 259.275 133.681 259.197 133.92 259.129C134.331 259.025 134.751 258.962 135.175 258.942C135.297 258.932 135.421 258.944 135.539 258.978C135.794 259.061 135.976 259.322 136.236 259.374C136.413 259.396 136.592 259.373 136.757 259.306C137.559 259.133 138.378 259.046 139.198 259.046C139.558 259.046 139.979 258.957 140.146 258.624C140.312 258.291 140.011 257.755 139.875 257.312C139.806 257.029 139.767 256.739 139.761 256.448C139.698 255.731 139.493 255.034 139.157 254.397C138.976 254.1 138.824 253.786 138.704 253.46C140.278 252.862 141.784 252.097 143.196 251.18C143.97 250.619 144.837 250.202 145.758 249.946C146.844 249.816 147.947 249.945 148.975 250.321C151.477 251.046 153.94 251.904 156.351 252.892C157.501 253.366 158.647 253.866 159.833 254.225C160.18 254.689 160.598 255.095 161.072 255.428C161.892 255.889 162.813 256.141 163.753 256.162C165.008 256.276 166.268 256.323 167.527 256.302C168.492 256.344 169.453 256.166 170.338 255.782C170.55 255.676 170.747 255.545 170.927 255.391C171.267 255.42 171.609 255.374 171.929 255.256C172.249 255.138 172.54 254.952 172.78 254.709C173.462 254.124 173.954 253.348 174.19 252.481C174.498 251.294 174.263 249.878 174.992 248.931C175.185 248.67 175.44 248.462 175.632 248.202C175.866 247.845 175.982 247.425 175.966 246.999C175.974 246.983 175.985 246.967 175.997 246.953C176.157 246.57 176.262 246.167 176.309 245.755C176.399 245.432 176.512 245.115 176.648 244.808C177.018 243.889 177.341 242.953 177.616 242.002C177.804 241.369 177.953 240.726 178.063 240.076C178.142 239.555 178.188 239.034 178.23 238.514C178.285 237.694 178.444 236.884 178.704 236.104C179.355 234.247 179.724 232.302 179.797 230.336V230.221C180.756 230.111 181.639 229.646 182.273 228.918C182.907 228.189 183.245 227.251 183.222 226.285C183.222 225.706 183.1 225.133 182.863 224.604C183.323 223.806 183.564 222.901 183.561 221.98ZM164.935 244.61C164.992 244.813 165.06 245.011 165.128 245.209C164.82 244.912 164.524 244.605 164.217 244.303C164.336 244.344 164.461 244.381 164.576 244.428C164.696 244.477 164.811 244.538 164.919 244.61H164.935ZM163.462 243.61C161.661 242.049 159.578 240.836 157.736 239.321C158.74 239.815 159.719 240.393 160.687 240.945C161.836 241.601 163 242.231 164.18 242.835C163.986 243.137 163.737 243.4 163.446 243.61H163.462ZM164.227 239.675L164.315 239.586C164.315 239.81 164.315 240.013 164.315 240.206L163.831 240.039C163.965 239.926 164.092 239.804 164.211 239.675H164.227ZM148.386 243.892C149.125 243.055 149.768 242.138 150.302 241.158C151.015 242.403 152.176 243.303 153.16 244.35C151.572 244.147 149.979 243.975 148.386 243.892Z" fill="url(#paint1_linear_1071_8)"/>
<path d="M150.948 228.732L152.083 228.961L155.95 234.682L154.248 234.911L150.948 228.732Z" fill="#2F2E41"/>
<path d="M123.431 251.94C123.739 252.949 124.118 253.936 124.565 254.891C125.847 254.621 127.108 254.261 128.34 253.814C128.097 253.453 127.834 253.105 127.554 252.773C127.248 252.44 126.887 252.164 126.486 251.955C126.06 251.859 125.617 251.859 125.19 251.955C124.607 251.94 124.019 251.95 123.431 251.94Z" fill="#FBBEBE"/>
<path d="M126.491 253.465C126.184 253.327 125.909 253.125 125.686 252.871C125.464 252.618 125.298 252.32 125.201 251.997C125.002 251.348 124.667 250.75 124.217 250.243C124.122 250.256 124.032 250.293 123.955 250.35C123.879 250.407 123.818 250.483 123.779 250.571C123.686 250.737 123.628 250.925 123.524 251.091C123.316 251.388 122.952 251.534 122.691 251.784C122.431 252.033 122.275 252.424 121.994 252.679C121.607 252.964 121.154 253.143 120.677 253.2C119.952 253.363 119.252 253.62 118.595 253.965C118.354 254.109 118.097 254.224 117.829 254.308C117.533 254.353 117.231 254.353 116.934 254.308L114.883 254.163C114.711 254.134 114.535 254.134 114.362 254.163C114.153 254.238 113.975 254.382 113.857 254.571C113.739 254.76 113.688 254.982 113.712 255.204C113.736 255.423 113.807 255.635 113.919 255.825C114.031 256.016 114.182 256.18 114.362 256.307C114.719 256.563 115.112 256.763 115.528 256.901C117.314 257.574 119.153 258.096 121.026 258.463V258.869C122.33 259.509 123.763 259.842 125.216 259.842C125.323 259.849 125.43 259.831 125.528 259.79C125.661 259.691 125.754 259.546 125.789 259.384C126.282 257.946 126.571 256.446 126.648 254.928C126.681 254.542 126.651 254.154 126.559 253.777C126.445 253.408 126.83 253.564 126.476 253.418" fill="#2F2E41"/>
<path d="M165.826 245.734C159.745 246.099 153.738 244.318 147.648 244.131C146.892 244.081 146.132 244.128 145.388 244.272C144.614 244.482 143.863 244.773 143.15 245.141C139.886 246.661 136.508 247.921 133.134 249.175L129.256 250.617C128.502 250.958 127.684 251.136 126.857 251.138C126.487 251.138 126.034 251.06 125.815 251.367C125.186 252.304 125.482 253.673 125.899 254.725C126.034 255.063 126.263 255.433 126.627 255.469C126.883 255.452 127.134 255.389 127.367 255.282C128.069 255.095 128.772 255.568 129.501 255.646C130.396 255.74 131.229 255.23 132.078 254.918C133.483 254.397 135.014 254.397 136.492 254.168C138.965 253.757 141.26 252.606 143.405 251.299C144.185 250.744 145.057 250.331 145.982 250.081C147.077 249.952 148.187 250.079 149.225 250.451C151.747 251.163 154.23 252.007 156.664 252.981C157.929 253.532 159.226 254.006 160.547 254.402C163.432 255.157 166.482 254.975 169.256 253.882C170.23 253.496 171.286 252.84 171.338 251.768C171.375 251.169 170.906 250.643 170.599 250.128C170.401 249.8 170.198 249.472 169.985 249.155C168.944 247.645 167.674 245.625 165.826 245.734Z" fill="#2F2E41"/>
<path opacity="0.1" d="M165.826 245.734C159.745 246.099 153.738 244.318 147.648 244.131C146.892 244.081 146.132 244.128 145.388 244.272C144.614 244.482 143.863 244.773 143.15 245.141C139.886 246.661 136.508 247.921 133.134 249.175L129.256 250.617C128.502 250.958 127.684 251.136 126.857 251.138C126.487 251.138 126.034 251.06 125.815 251.367C125.186 252.304 125.482 253.673 125.899 254.725C126.034 255.063 126.263 255.433 126.627 255.469C126.883 255.452 127.134 255.389 127.367 255.282C128.069 255.095 128.772 255.568 129.501 255.646C130.396 255.74 131.229 255.23 132.078 254.918C133.483 254.397 135.014 254.397 136.492 254.168C138.965 253.757 141.26 252.606 143.405 251.299C144.185 250.744 145.057 250.331 145.982 250.081C147.077 249.952 148.187 250.079 149.225 250.451C151.747 251.163 154.23 252.007 156.664 252.981C157.929 253.532 159.226 254.006 160.547 254.402C163.432 255.157 166.482 254.975 169.256 253.882C170.23 253.496 171.286 252.84 171.338 251.768C171.375 251.169 170.906 250.643 170.599 250.128C170.401 249.8 170.198 249.472 169.985 249.155C168.944 247.645 167.674 245.625 165.826 245.734Z" fill="black"/>
<path d="M135.107 252.221C136.058 252.544 137.018 252.842 137.986 253.116C138.507 252.226 139.548 251.607 139.772 250.586C139.785 250.542 139.785 250.495 139.772 250.451C139.746 250.408 139.708 250.373 139.662 250.352C138.966 249.97 138.195 249.744 137.403 249.691C136.778 249.654 136.492 250.305 136.211 250.763C136.102 250.966 135.362 252.32 135.107 252.221Z" fill="#FBBEBE"/>
<path d="M136.44 251.586C136.155 251.538 135.884 251.431 135.643 251.272C135.402 251.114 135.196 250.907 135.04 250.664C134.91 250.43 134.764 250.113 134.493 250.144C134.222 250.175 134.134 250.456 134.077 250.701C133.896 251.623 133.633 252.527 133.291 253.403C132.947 254.282 132.365 255.049 131.609 255.615C131.255 255.86 130.865 256.042 130.516 256.302C130.227 256.558 129.919 256.791 129.595 257C129.365 257.103 129.128 257.19 128.887 257.26C128.531 257.394 128.192 257.569 127.877 257.781C127.596 257.942 127.358 258.169 127.184 258.442C127.098 258.578 127.048 258.735 127.039 258.896C127.03 259.057 127.062 259.218 127.132 259.363C127.205 259.483 127.303 259.586 127.419 259.665C127.534 259.744 127.666 259.797 127.804 259.821C128.082 259.863 128.364 259.863 128.642 259.821C129.751 259.743 130.86 259.644 131.968 259.545C132.436 259.515 132.9 259.451 133.358 259.353L134.082 259.155C134.495 259.046 134.919 258.983 135.347 258.968C135.471 258.956 135.597 258.969 135.716 259.004C135.971 259.087 136.154 259.342 136.419 259.395C136.596 259.411 136.773 259.388 136.94 259.327C137.749 259.153 138.574 259.068 139.402 259.072C139.766 259.072 140.193 258.978 140.36 258.655C140.568 258.249 140.224 257.796 140.084 257.359C140.017 257.081 139.978 256.796 139.969 256.51C139.907 255.802 139.7 255.115 139.36 254.491C139.079 253.97 138.694 253.397 138.892 252.846C138.99 252.67 139.054 252.478 139.079 252.278C139.001 251.383 136.95 251.7 136.44 251.586Z" fill="#2F2E41"/>
<path d="M156.71 235.979C155.631 235.506 154.767 234.649 154.285 233.574C154.186 233.345 154.102 233.1 154.004 232.871C153.686 232.095 153.19 231.405 152.556 230.856C152.49 230.785 152.409 230.729 152.319 230.69C152.23 230.652 152.133 230.632 152.036 230.632C151.939 230.661 151.852 230.716 151.783 230.79C151.715 230.864 151.667 230.955 151.645 231.054C151.587 231.266 151.573 231.487 151.604 231.705C151.657 232.217 151.744 232.724 151.864 233.225L152.161 234.568C152.2 234.773 152.261 234.974 152.343 235.167C152.47 235.392 152.638 235.591 152.838 235.755C153.108 236.005 153.384 236.244 153.66 236.484C153.82 236.623 153.994 236.743 154.181 236.843C154.471 236.982 154.782 237.073 155.102 237.114C156.344 237.275 157.529 237.732 158.558 238.446C158.558 238.446 158.558 237.546 158.558 237.447C158.545 237.185 158.455 236.933 158.298 236.723C157.821 236.376 157.282 236.123 156.71 235.979Z" fill="#FBBEBE"/>
<path opacity="0.1" d="M156.71 235.979C155.631 235.506 154.767 234.649 154.285 233.574C154.186 233.345 154.102 233.1 154.004 232.871C153.686 232.095 153.19 231.405 152.556 230.856C152.49 230.785 152.409 230.729 152.319 230.69C152.23 230.652 152.133 230.632 152.036 230.632C151.939 230.661 151.852 230.716 151.783 230.79C151.715 230.864 151.667 230.955 151.645 231.054C151.587 231.266 151.573 231.487 151.604 231.705C151.657 232.217 151.744 232.724 151.864 233.225L152.161 234.568C152.2 234.773 152.261 234.974 152.343 235.167C152.47 235.392 152.638 235.591 152.838 235.755C153.108 236.005 153.384 236.244 153.66 236.484C153.82 236.623 153.994 236.743 154.181 236.843C154.471 236.982 154.782 237.073 155.102 237.114C156.344 237.275 157.529 237.732 158.558 238.446C158.558 238.446 158.558 237.546 158.558 237.447C158.545 237.185 158.455 236.933 158.298 236.723C157.821 236.376 157.282 236.123 156.71 235.979Z" fill="black"/>
<path d="M169.089 225.702C169.906 225.702 170.568 225.036 170.568 224.213C170.568 223.391 169.906 222.725 169.089 222.725C168.273 222.725 167.611 223.391 167.611 224.213C167.611 225.036 168.273 225.702 169.089 225.702Z" fill="#2F2E41"/>
<path d="M168.173 223.318C167.777 223.223 167.36 223.283 167.007 223.485C166.836 223.637 166.699 223.823 166.606 224.031C166.275 224.601 166.016 225.209 165.836 225.843C165.705 226.363 165.685 226.952 165.518 227.488C165.216 228.477 164.44 229.315 164.352 230.346C164.31 230.809 164.388 231.351 164.05 231.663C163.967 231.735 163.878 231.799 163.785 231.856C163.55 232.012 163.351 232.216 163.202 232.454C163.1 232.667 162.96 232.859 162.79 233.022C162.488 233.246 161.989 233.225 161.843 233.542C161.697 233.86 162.077 234.292 161.989 234.667C161.9 235.042 161.572 235.114 161.338 235.323C161.062 235.614 160.868 235.973 160.776 236.364C160.281 236.459 159.771 236.446 159.282 236.324C158.793 236.203 158.337 235.977 157.944 235.661C158.287 236.704 158.437 237.802 158.386 238.899C158.412 239.075 158.403 239.254 158.358 239.425C158.313 239.597 158.234 239.758 158.126 239.899C159.3 239.986 160.463 240.188 161.598 240.503C162.09 240.666 162.621 240.666 163.113 240.503C163.376 240.361 163.612 240.174 163.811 239.951C164.435 239.316 165.091 238.623 165.242 237.743C165.279 237.246 165.288 236.747 165.268 236.249C165.327 235.632 165.455 235.022 165.648 234.433C165.978 233.208 166.199 231.958 166.309 230.695C166.377 229.914 167.054 229.289 167.408 228.612C168.074 227.295 168.761 225.926 168.808 224.448C168.829 223.969 168.662 223.37 168.173 223.318Z" fill="#2F2E41"/>
<path opacity="0.1" d="M168.173 223.318C167.777 223.223 167.36 223.283 167.007 223.485C166.836 223.637 166.699 223.823 166.606 224.031C166.275 224.601 166.016 225.209 165.836 225.843C165.705 226.363 165.685 226.952 165.518 227.488C165.216 228.477 164.44 229.315 164.352 230.346C164.31 230.809 164.388 231.351 164.05 231.663C163.967 231.735 163.878 231.799 163.785 231.856C163.55 232.012 163.351 232.216 163.202 232.454C163.1 232.667 162.96 232.859 162.79 233.022C162.488 233.246 161.989 233.225 161.843 233.542C161.697 233.86 162.077 234.292 161.989 234.667C161.9 235.042 161.572 235.114 161.338 235.323C161.062 235.614 160.868 235.973 160.776 236.364C160.281 236.459 159.771 236.446 159.282 236.324C158.793 236.203 158.337 235.977 157.944 235.661C158.287 236.704 158.437 237.802 158.386 238.899C158.412 239.075 158.403 239.254 158.358 239.425C158.313 239.597 158.234 239.758 158.126 239.899C159.3 239.986 160.463 240.188 161.598 240.503C162.09 240.666 162.621 240.666 163.113 240.503C163.376 240.361 163.612 240.174 163.811 239.951C164.435 239.316 165.091 238.623 165.242 237.743C165.279 237.246 165.288 236.747 165.268 236.249C165.327 235.632 165.455 235.022 165.648 234.433C165.978 233.208 166.199 231.958 166.309 230.695C166.377 229.914 167.054 229.289 167.408 228.612C168.074 227.295 168.761 225.926 168.808 224.448C168.829 223.969 168.662 223.37 168.173 223.318Z" fill="black"/>
<path d="M166.789 247.015C165.524 246.411 164.597 245.292 163.572 244.329C161.619 242.491 159.23 241.205 157.174 239.472C155.81 238.332 154.571 237.004 153.098 236.046C151.778 235.21 150.284 234.688 148.73 234.521C148.559 234.482 148.381 234.482 148.21 234.521C148.013 234.605 147.842 234.739 147.715 234.911C147.051 235.66 146.461 236.471 145.951 237.332C143.348 241.757 139.647 245.474 136.581 249.587C136.51 249.672 136.459 249.771 136.43 249.878C136.417 250.038 136.457 250.197 136.544 250.331L137.169 251.549C137.518 252.236 138.08 253.033 138.829 252.898C139.167 252.8 139.469 252.606 139.699 252.341L142.499 249.66L145.435 246.854C147.153 245.214 148.902 243.532 150.027 241.429C150.901 242.949 152.458 243.944 153.52 245.334C153.926 245.854 154.259 246.442 154.623 247.005C155.201 247.9 155.862 248.743 156.518 249.607L159.886 253.902C160.313 254.509 160.841 255.037 161.448 255.464C162.278 255.916 163.204 256.164 164.149 256.188C165.415 256.3 166.685 256.346 167.955 256.323C168.927 256.362 169.896 256.184 170.792 255.802C171.238 255.606 171.619 255.287 171.891 254.883C172.163 254.478 172.314 254.004 172.327 253.517C172.276 253.013 172.11 252.527 171.843 252.096C170.625 249.925 169.053 248.093 166.789 247.015Z" fill="#2F2E41"/>
<path d="M170 226.39C170.63 226.39 171.14 225.877 171.14 225.244C171.14 224.612 170.63 224.099 170 224.099C169.37 224.099 168.86 224.612 168.86 225.244C168.86 225.877 169.37 226.39 170 226.39Z" fill="#E8E8F0"/>
<path d="M169.751 224.385C170.005 224.896 170.05 225.487 169.876 226.03C169.696 226.564 169.449 227.073 169.142 227.545C168.877 228.031 168.557 228.486 168.189 228.899C169.948 228.982 171.651 228.295 173.197 227.462C174.446 226.79 175.69 225.963 176.357 224.708C176.158 224.755 175.951 224.76 175.75 224.723C175.549 224.685 175.359 224.606 175.19 224.489C174.855 224.258 174.555 223.98 174.3 223.662L173.421 222.673C173.221 222.455 173.046 222.216 172.9 221.959C172.707 221.609 172.625 221.207 172.666 220.809C172.315 221.175 171.924 221.5 171.5 221.777C170.87 222.188 170.178 222.485 169.542 222.891C169.324 223.037 168.824 223.266 168.954 223.558C169.084 223.849 169.574 224.073 169.751 224.385Z" fill="#FBBEBE"/>
<path opacity="0.1" d="M169.751 224.385C170.005 224.896 170.05 225.487 169.876 226.03C169.696 226.564 169.449 227.073 169.142 227.545C168.877 228.031 168.557 228.486 168.189 228.899C169.948 228.982 171.651 228.295 173.197 227.462C174.446 226.79 175.69 225.963 176.357 224.708C176.158 224.755 175.951 224.76 175.75 224.723C175.549 224.685 175.359 224.606 175.19 224.489C174.855 224.258 174.555 223.98 174.3 223.662L173.421 222.673C173.221 222.455 173.046 222.216 172.9 221.959C172.707 221.609 172.625 221.207 172.666 220.809C172.315 221.175 171.924 221.5 171.5 221.777C170.87 222.188 170.178 222.485 169.542 222.891C169.324 223.037 168.824 223.266 168.954 223.558C169.084 223.849 169.574 224.073 169.751 224.385Z" fill="black"/>
<path d="M169.771 224.557C169.593 224.808 169.497 225.108 169.497 225.416C169.497 225.724 169.593 226.024 169.771 226.275C169.823 226.337 170.01 226.728 170.088 226.733C170.127 226.73 170.164 226.719 170.198 226.701C170.232 226.683 170.262 226.659 170.286 226.629C170.687 226.212 171.059 225.768 171.4 225.302C171.749 224.836 172.25 224.508 172.816 224.375C173.517 224.348 174.207 224.563 174.768 224.984C175.029 225.103 175.259 225.281 175.44 225.505C175.565 225.734 175.64 225.988 175.658 226.249C175.829 227.82 175.895 229.401 175.856 230.981C175.886 232.122 175.811 233.264 175.632 234.391C175.518 234.969 175.351 235.536 175.273 236.124C175.212 236.643 175.188 237.165 175.2 237.686V239.862C175.186 240.261 175.214 240.661 175.284 241.054C175.388 241.528 175.612 241.971 175.763 242.434C175.918 242.966 176.025 243.512 176.08 244.063L176.377 246.312C176.471 247.02 176.543 247.796 176.111 248.395C175.919 248.65 175.664 248.858 175.466 249.113C174.732 250.071 174.945 251.44 174.659 252.611C174.418 253.469 173.92 254.232 173.233 254.798C172.988 255.04 172.692 255.226 172.368 255.342C172.043 255.458 171.697 255.502 171.353 255.469C170.437 255.298 169.891 254.345 169.641 253.444C169.391 252.544 169.302 251.565 168.761 250.805C168.264 250.23 167.677 249.739 167.022 249.352C166.36 248.96 165.874 248.328 165.664 247.588C165.606 247.26 165.664 246.921 165.606 246.588C165.558 246.169 165.397 245.77 165.141 245.434C164.886 245.098 164.545 244.837 164.154 244.678C163.686 244.495 163.113 244.428 162.842 244.001C163.512 243.581 164.001 242.926 164.211 242.163C164.419 241.406 164.53 240.626 164.545 239.841L164.701 237.238C164.774 236.067 164.805 234.911 165.32 233.86C165.549 233.391 165.841 232.949 166.075 232.486C166.392 231.835 166.662 231.161 166.882 230.471C167.257 229.399 167.631 228.326 167.965 227.243C168.095 226.718 168.294 226.212 168.558 225.739C168.839 225.249 169.245 224.661 169.771 224.557Z" fill="#E8E8F0"/>
<path d="M163.967 241.549H164.659L164.805 240.508C164.824 240.299 164.873 240.094 164.951 239.899C165.065 239.692 165.2 239.496 165.352 239.316C166.029 238.353 165.982 237.077 166.148 235.906C166.45 234.358 166.961 232.859 167.668 231.45L169.011 228.456C169.134 228.211 169.231 227.955 169.303 227.691C169.359 227.399 169.387 227.103 169.386 226.806C169.386 226.343 169.532 224.656 169.547 224.203C169.547 224.031 169.167 224.125 169.089 223.974C168.923 223.641 168.694 224.541 168.376 224.739C168.078 224.967 167.861 225.284 167.757 225.645C167.465 226.395 167.288 227.207 167.018 227.951C166.782 228.728 166.35 229.431 165.763 229.992C165.487 230.231 165.17 230.424 164.909 230.684C164.076 231.507 163.993 232.813 163.967 233.99C163.946 234.708 163.811 241.549 163.967 241.549Z" fill="#2F2E41"/>
<path d="M173.931 223.313C173.609 223.481 173.33 223.721 173.116 224.015C172.902 224.308 172.759 224.647 172.697 225.005C172.578 225.723 172.368 226.422 172.072 227.087C171.229 228.555 169.079 228.982 168.48 230.57C168.33 231.104 168.249 231.655 168.241 232.21C168.137 233.35 167.762 234.448 167.648 235.583C167.59 236.466 167.611 237.353 167.71 238.233L168.465 247.197C168.609 248.516 168.534 249.849 168.241 251.143C169.015 251.254 169.804 251.123 170.5 250.768C171.203 250.446 171.848 250.003 172.53 249.628C173.696 248.983 174.987 248.53 176.013 247.671C176.197 247.524 176.355 247.349 176.481 247.15C176.638 246.774 176.743 246.378 176.794 245.974C176.882 245.657 176.996 245.347 177.132 245.047C177.508 244.142 177.835 243.218 178.111 242.278C178.299 241.656 178.448 241.023 178.559 240.383C178.642 239.862 178.689 239.342 178.73 238.821C178.785 238.014 178.946 237.217 179.209 236.452C179.862 234.624 180.233 232.707 180.308 230.768C180.328 230.489 180.309 230.208 180.25 229.935C180.136 229.6 179.982 229.28 179.792 228.982C179.48 228.394 179.272 227.748 179.001 227.15C178.263 225.831 177.205 224.719 175.924 223.917C175.321 223.505 174.613 223.068 173.931 223.313Z" fill="#2F2E41"/>
<path d="M158.204 237.941C157.67 237.661 157.186 237.293 156.773 236.853C156.586 236.635 156.429 236.39 156.252 236.171C155.77 235.652 155.142 235.289 154.451 235.13C153.768 234.98 153.069 234.912 152.369 234.927C151.899 234.896 151.428 234.952 150.979 235.094C150.755 235.169 150.554 235.298 150.393 235.471C150.232 235.644 150.117 235.854 150.058 236.083C150.039 236.366 150.094 236.649 150.217 236.904C150.34 237.16 150.527 237.379 150.76 237.54C151.167 237.874 151.647 238.106 152.161 238.217C152.579 238.291 153.002 238.342 153.426 238.368C155.914 238.628 158.137 239.982 160.318 241.216C162.234 242.305 164.187 243.319 166.179 244.256C166.257 243.66 166.29 243.06 166.278 242.46C166.278 242.012 166.242 241.325 165.82 241.06C165.22 240.808 164.596 240.622 163.957 240.502C162.672 240.083 161.418 239.575 160.203 238.982C159.516 238.686 158.855 238.321 158.204 237.941Z" fill="#FBBEBE"/>
<path d="M169.089 223.875C171.539 223.875 173.524 221.878 173.524 219.414C173.524 216.95 171.539 214.952 169.089 214.952C166.64 214.952 164.654 216.95 164.654 219.414C164.654 221.878 166.64 223.875 169.089 223.875Z" fill="#FBBEBE"/>
<path d="M175.196 228.368C174.842 228.865 174.553 229.406 174.337 229.976C173.816 231.101 172.931 232.059 172.499 233.251C172.067 234.443 172.062 235.974 171.172 236.947C170.994 237.096 170.859 237.29 170.781 237.509C170.778 237.645 170.764 237.781 170.74 237.915C170.61 238.269 170.032 238.285 169.922 238.649C169.891 238.753 169.922 238.868 169.87 238.972C169.782 239.206 169.47 239.243 169.267 239.383C168.835 239.675 168.923 240.352 168.616 240.773C168.482 240.93 168.309 241.049 168.114 241.118C167.919 241.186 167.71 241.202 167.507 241.164C167.103 241.081 166.715 240.936 166.357 240.732C166.228 240.661 166.086 240.617 165.94 240.602C165.767 240.608 165.601 240.666 165.461 240.768C165.069 241.057 164.754 241.439 164.545 241.88C164.336 242.32 164.239 242.806 164.264 243.293C164.324 244.268 164.556 245.226 164.951 246.12C164.995 246.275 165.071 246.418 165.175 246.541C165.33 246.663 165.518 246.736 165.714 246.751C165.911 246.766 166.107 246.722 166.279 246.625C166.618 246.423 166.98 246.26 167.356 246.141C168.043 246.016 168.715 246.489 169.412 246.448C169.92 246.373 170.399 246.162 170.797 245.839C171.497 245.421 172.127 244.893 172.661 244.277C172.963 243.876 173.181 243.423 173.452 242.996C173.796 242.477 174.17 241.979 174.571 241.502L177.132 238.379C177.387 238.082 177.616 237.765 177.819 237.431C178.047 236.975 178.222 236.495 178.34 236C178.614 235.175 178.788 234.32 178.86 233.454C178.876 232.738 178.813 232.022 178.673 231.319C178.595 230.62 178.42 229.935 178.152 229.284C177.596 228.108 176.242 227.15 175.196 228.368Z" fill="#2F2E41"/>
<path d="M184.107 222.548C184.111 221.757 183.927 220.976 183.571 220.27C183.214 219.565 182.695 218.953 182.056 218.487C182.035 217.082 181.517 215.73 180.594 214.671C179.67 213.612 178.401 212.915 177.012 212.703C176.745 211.371 176.016 210.176 174.954 209.329C173.891 208.483 172.564 208.038 171.206 208.075C169.848 208.112 168.547 208.627 167.532 209.53C166.517 210.433 165.853 211.666 165.659 213.01C163.816 212.594 162.129 213.135 161.822 214.27C161.515 215.405 162.816 216.873 164.758 217.394C165.371 217.565 166.008 217.629 166.643 217.581C167.095 218.247 167.681 218.812 168.364 219.237C169.047 219.663 169.812 219.941 170.609 220.054C170.845 221.127 171.376 222.113 172.141 222.902C172.906 223.691 173.875 224.252 174.94 224.521C175.237 225.232 175.695 225.865 176.278 226.369C176.278 226.509 176.278 226.655 176.278 226.801C176.278 227.294 176.375 227.782 176.564 228.237C176.752 228.693 177.029 229.106 177.377 229.455C177.726 229.803 178.14 230.08 178.595 230.268C179.05 230.457 179.538 230.554 180.031 230.554C180.524 230.554 181.012 230.457 181.468 230.268C181.923 230.08 182.337 229.803 182.685 229.455C183.034 229.106 183.31 228.693 183.499 228.237C183.688 227.782 183.785 227.294 183.785 226.801C183.785 226.228 183.662 225.662 183.425 225.14C183.884 224.354 184.119 223.458 184.107 222.548Z" fill="#F86D70"/>
<path opacity="0.1" d="M163.072 214.51C163.379 213.375 165.065 212.834 166.908 213.25C167.127 211.884 167.822 210.639 168.87 209.736C169.917 208.833 171.251 208.329 172.634 208.315H173.014C172.484 208.154 171.934 208.071 171.38 208.07C169.997 208.085 168.663 208.588 167.615 209.491C166.567 210.394 165.872 211.639 165.654 213.005C163.811 212.589 162.124 213.13 161.817 214.265C161.51 215.4 162.811 216.868 164.753 217.389C165.117 217.489 165.49 217.554 165.867 217.581C164.009 217.024 162.765 215.671 163.072 214.51Z" fill="black"/>
<path opacity="0.1" d="M177.507 227.019C177.499 226.877 177.499 226.735 177.507 226.593C176.921 226.091 176.462 225.458 176.169 224.745C175.102 224.477 174.132 223.916 173.366 223.126C172.601 222.336 172.072 221.348 171.838 220.273C171.04 220.162 170.274 219.886 169.59 219.461C168.906 219.036 168.319 218.472 167.866 217.805C167.497 217.836 167.125 217.825 166.757 217.774C167.213 218.387 167.786 218.904 168.443 219.294C169.1 219.685 169.827 219.941 170.584 220.049C170.82 221.122 171.35 222.108 172.115 222.897C172.88 223.686 173.849 224.246 174.915 224.515C175.211 225.227 175.669 225.86 176.252 226.364C176.252 226.504 176.252 226.65 176.252 226.796C176.236 227.805 176.619 228.779 177.318 229.507C178.017 230.235 178.976 230.656 179.985 230.679C179.249 230.393 178.617 229.89 178.175 229.236C177.732 228.582 177.499 227.809 177.507 227.019Z" fill="black"/>
<path d="M171.123 221.052C171.423 220.824 171.419 220.314 171.115 219.914C170.811 219.513 170.321 219.373 170.021 219.601C169.721 219.828 169.725 220.338 170.029 220.739C170.333 221.139 170.823 221.279 171.123 221.052Z" fill="#FBBEBE"/>
</g>
<defs>
<linearGradient id="paint0_linear_1071_8" x1="334.039" y1="297.293" x2="334.039" y2="207.69" gradientUnits="userSpaceOnUse">
<stop stop-color="#808080" stop-opacity="0.25"/>
<stop offset="0.54" stop-color="#808080" stop-opacity="0.12"/>
<stop offset="1" stop-color="#808080" stop-opacity="0.1"/>
</linearGradient>
<linearGradient id="paint1_linear_1071_8" x1="32422.3" y1="34898" x2="32422.3" y2="29595.3" gradientUnits="userSpaceOnUse">
<stop stop-color="#808080" stop-opacity="0.25"/>
<stop offset="0.54" stop-color="#808080" stop-opacity="0.12"/>
<stop offset="1" stop-color="#808080" stop-opacity="0.1"/>
</linearGradient>
<clipPath id="clip0_1071_8">
<rect width="440" height="323" fill="white"/>
</clipPath>
</defs>
</svg>
