<svg width="56" height="56" viewBox="0 0 56 56" fill="none" xmlns="http://www.w3.org/2000/svg">
<path d="M9.41273 13.0833H44.2552C45.1272 13.0833 45.834 13.7901 45.834 14.662V43.4932C45.834 44.3652 45.1272 45.072 44.2552 45.072H9.41273C8.54081 45.072 7.83398 44.3652 7.83398 43.4932V14.662C7.83398 13.7901 8.54081 13.0833 9.41273 13.0833Z" stroke="#222222" stroke-width="4"/>
<path d="M44.2552 11.0833H9.41273C8.46359 11.0833 7.55332 11.586 6.88218 12.4808C6.21103 13.3757 5.83398 14.5894 5.83398 15.8549V18.0833H47.834V15.8549C47.834 15.2283 47.7414 14.6078 47.5616 14.0289C47.3817 13.45 47.1181 12.9239 46.7858 12.4808C46.4535 12.0378 46.059 11.6863 45.6248 11.4465C45.1906 11.2067 44.7252 11.0833 44.2552 11.0833Z" fill="#222222"/>
<rect x="38.166" y="23" width="10" height="17.5833" rx="2" fill="white" stroke="#6C63FF" stroke-width="4"/>
<rect x="10.5" y="13.4167" width="2.33333" height="2.33333" fill="#6C63FF"/>
<rect x="13.416" y="13.4167" width="2.33333" height="2.33333" fill="#6C63FF"/>
<rect x="16.334" y="13.4167" width="2.33334" height="2.33333" fill="#6C63FF"/>
</svg>
