<svg width="56" height="56" viewBox="0 0 123 123" fill="none" xmlns="http://www.w3.org/2000/svg">
<g filter="url(#filter0_d)">
<path d="M20.1309 53.24C20.1309 30.46 38.6009 12 61.3709 12C84.1509 12 102.611 30.47 102.611 53.24C102.611 76.02 84.1409 94.48 61.3709 94.48C38.6009 94.48 20.1309 76.02 20.1309 53.24Z" fill="white"/>
<path d="M29.0312 53.2402C29.0312 35.3801 43.5113 20.9001 61.3713 20.9001C79.2313 20.9001 93.7212 35.3801 93.7212 53.2402C93.7212 71.1002 79.2412 85.5801 61.3812 85.5801C43.5212 85.5801 29.0312 71.1002 29.0312 53.2402Z" fill="url(#paint0_linear)"/>
<path d="M45.9711 46.4301H53.0511V69.1701H45.9711V46.4301ZM49.5111 35.1301C51.7711 35.1301 53.6111 36.9701 53.6111 39.2301C53.6111 41.4901 51.7811 43.3301 49.5111 43.3301C47.2411 43.3301 45.4111 41.4901 45.4111 39.2301C45.4111 36.9701 47.2411 35.1301 49.5111 35.1301Z" fill="white"/>
<path d="M57.4912 46.4301H64.2712V49.5401H64.3612C65.3112 47.7501 67.6112 45.8701 71.0512 45.8701C78.2112 45.8701 79.5312 50.5801 79.5312 56.7001V69.1701H72.4712V58.1201C72.4712 55.4801 72.4212 52.0901 68.8012 52.0901C65.1212 52.0901 64.5612 54.9601 64.5612 57.9301V69.1801H57.4912V46.4301Z" fill="white"/>
</g>
<defs>
<filter id="filter0_d" x="0.130859" y="0" width="122.48" height="122.48" filterUnits="userSpaceOnUse" color-interpolation-filters="sRGB">
<feFlood flood-opacity="0" result="BackgroundImageFix"/>
<feColorMatrix in="SourceAlpha" type="matrix" values="0 0 0 0 0 0 0 0 0 0 0 0 0 0 0 0 0 0 127 0" result="hardAlpha"/>
<feOffset dy="8"/>
<feGaussianBlur stdDeviation="10"/>
<feColorMatrix type="matrix" values="0 0 0 0 0 0 0 0 0 0 0 0 0 0 0 0 0 0 0.1 0"/>
<feBlend mode="normal" in2="BackgroundImageFix" result="effect1_dropShadow"/>
<feBlend mode="normal" in="SourceGraphic" in2="effect1_dropShadow" result="shape"/>
</filter>
<linearGradient id="paint0_linear" x1="38.505" y1="30.3704" x2="84.2453" y2="76.1106" gradientUnits="userSpaceOnUse">
<stop stop-color="#007AB5"/>
<stop offset="1" stop-color="#0046E5"/>
</linearGradient>
</defs>
</svg>
