<svg width="640" height="478" viewBox="0 0 640 478" fill="none" xmlns="http://www.w3.org/2000/svg">
<path d="M353.142 478C511.569 478 640 466.446 640 452.194C640 437.941 511.569 426.388 353.142 426.388C194.714 426.388 66.2832 437.941 66.2832 452.194C66.2832 466.446 194.714 478 353.142 478Z" fill="#3F3D56"/>
<path opacity="0.3" d="M212.929 210.858L524.293 210.858V0.000106812L212.929 0.000106812V210.858Z" fill="#3F3D56"/>
<path d="M504.419 19.3193H412.225V119.78H504.419V19.3193Z" fill="#F2F2F2"/>
<path d="M266.479 25.3911L355.361 25.3911V19.3193L266.479 19.3193V25.3911Z" fill="#F2F2F2"/>
<path d="M412.224 141.308H443.691V135.236H412.224V141.308Z" fill="#F2F2F2"/>
<path d="M413.328 152.347H503.314V146.276H413.328V152.347Z" fill="#F2F2F2"/>
<path d="M248.261 47.4705L376.34 47.4705V41.3986L248.261 41.3986V47.4705Z" fill="#F2F2F2"/>
<path d="M248.261 64.582L376.34 64.582V58.5102L248.261 58.5102V64.582Z" fill="#F2F2F2"/>
<path d="M248.261 81.6936L376.34 81.6936V75.6218L248.261 75.6218V81.6936Z" fill="#F2F2F2"/>
<path d="M248.261 98.8049L376.34 98.8049V92.7331L248.261 92.7331V98.8049Z" fill="#F2F2F2"/>
<path d="M248.261 115.917L376.34 115.917V109.845L248.261 109.845V115.917Z" fill="#F2F2F2"/>
<path d="M248.261 133.028L376.34 133.028V126.956L248.261 126.956V133.028Z" fill="#F2F2F2"/>
<path d="M248.261 150.139L376.34 150.139V144.068L248.261 144.068V150.139Z" fill="#F2F2F2"/>
<path d="M426.07 76.6847C427.435 75.7138 428.94 74.9588 430.535 74.4463C440.642 70.686 451.233 68.3808 461.989 67.6001C471.342 66.937 481.479 67.7246 488.784 73.6019C489.92 74.4355 490.85 75.5187 491.502 76.768C492.421 78.7509 492.143 81.0559 491.845 83.2211C491.778 84.0609 491.567 84.8829 491.219 85.6504C490.236 87.5218 487.816 88.1774 485.714 87.953C483.612 87.7286 481.639 86.8393 479.565 86.4269C478.282 86.2033 476.984 86.0711 475.682 86.0315L462.678 85.3276C454.591 84.8898 446.398 84.4594 438.465 86.0912C436.023 86.5301 433.664 87.3431 431.47 88.5015C429.658 89.5186 428.438 90.978 426.757 89.0994C423.803 85.799 422.168 79.7331 426.07 76.6847Z" fill="#2F2E41"/>
<path d="M446.22 82.4345C446.22 82.4345 463.712 74.5945 470.347 83.6407C476.982 92.6868 466.728 89.0684 466.728 89.0684L455.268 92.6868L442.602 90.2745L446.22 82.4345Z" fill="#F2F2F2"/>
<path d="M447.127 76.7055C447.127 76.7055 449.54 88.1639 447.73 91.1793C445.921 94.1947 457.984 98.4162 457.984 98.4162L469.444 93.5916C469.444 93.5916 466.428 74.8963 469.444 71.2778L447.127 76.7055Z" fill="#FFB9B9"/>
<path opacity="0.1" d="M447.127 76.7055C447.127 76.7055 449.54 88.1639 447.73 91.1793C445.921 94.1947 457.984 98.4162 457.984 98.4162L469.444 93.5916C469.444 93.5916 466.428 74.8963 469.444 71.2778L447.127 76.7055Z" fill="black"/>
<path d="M474.872 65.247C474.868 70.0442 472.96 74.6437 469.568 78.0359C466.175 81.428 461.575 83.3354 456.777 83.3393C455.699 83.3411 454.623 83.2442 453.562 83.0498C450.176 82.4384 447.034 80.8741 444.505 78.5404C441.977 76.2068 440.166 73.2006 439.286 69.8744C438.405 66.5482 438.492 63.04 439.535 59.7613C440.579 56.4826 442.535 53.5693 445.176 51.3632C447.817 49.1571 451.032 47.7496 454.444 47.3059C457.857 46.8622 461.325 47.4006 464.442 48.858C467.559 50.3154 470.196 52.6313 472.044 55.5342C473.891 58.437 474.872 61.8064 474.872 65.247Z" fill="#FFB9B9"/>
<path d="M485.797 120.332H428.09L429.398 114.652L435.062 89.9732L441.61 85.5518L441.615 85.5463L444.69 83.4653L446.22 82.4331C446.22 82.4331 447.125 82.8471 448.168 83.4101C448.472 83.5812 448.781 83.7579 449.09 83.9455C449.096 83.9401 449.096 83.9455 449.096 83.9455C449.596 84.2362 450.073 84.5666 450.52 84.9336C450.603 85.0109 450.675 85.0771 450.747 85.1489C451.895 86.297 455.246 92.3909 460.789 89.2722C461.068 89.1184 461.339 88.9489 461.6 88.7644C463.045 87.7647 464.422 86.6712 465.724 85.4911C466.889 84.4258 467.645 83.6033 468.264 83.0347C468.541 82.7583 468.857 82.524 469.202 82.3392C469.462 82.2026 469.753 82.1325 470.047 82.1351C471.857 82.1351 474.27 85.7505 474.27 85.7505L474.342 85.9603L474.347 85.9769L481.96 108.829L485.797 120.332Z" fill="#F2F2F2"/>
<path d="M428.09 120.332H445.579C445.618 118.311 445.513 116.289 445.265 114.283C444.729 110.248 443.415 106.362 442.587 102.376C441.859 98.8839 441.505 95.3236 441.533 91.7561C441.538 91.2648 441.549 90.7681 441.594 90.2713C441.637 89.1338 441.965 88.0254 442.549 87.0477C442.963 86.413 443.531 85.872 443.973 85.2648C444.126 85.0661 444.261 84.8536 444.376 84.63V84.6245C444.431 84.5149 444.481 84.4025 444.525 84.2878C444.622 84.0238 444.678 83.7464 444.691 83.4654C444.79 81.6438 443.139 79.8885 441.356 79.1378C438.853 78.1982 436.115 78.0879 433.544 78.8232C430.997 79.5594 428.535 80.5661 426.202 81.826C425.413 82.2124 424.629 82.6098 423.872 83.0514C422.969 83.5634 422.139 84.1947 421.405 84.9281C419.528 86.8656 418.705 89.5648 418.042 92.1757C417.411 94.1714 417.195 96.2754 417.408 98.3579C417.413 98.4241 417.43 98.4959 417.441 98.5621C418.098 102.001 420.902 104.584 422.398 107.753C424.132 111.429 424.016 115.712 423.326 119.72C423.293 119.924 423.254 120.128 423.215 120.332H428.09V120.332Z" fill="#2F2E41"/>
<path d="M499.284 98.2476C497.089 105.465 495.496 112.852 494.52 120.332H469.589C468.938 118.555 468.288 116.776 467.64 114.995C467.123 113.651 466.679 112.28 466.31 110.888C465.915 109.27 465.728 107.608 465.752 105.942C465.752 105.545 465.769 105.142 465.802 104.744C465.805 104.741 465.806 104.737 465.806 104.733C465.806 104.729 465.805 104.725 465.802 104.722C465.953 102.622 466.44 100.559 467.243 98.6118C467.611 97.7267 468.035 96.8658 468.512 96.0341C469.672 93.9366 471.074 91.9605 472.322 89.9071C473.099 88.6523 473.777 87.3382 474.348 85.977C474.347 85.974 474.348 85.9709 474.349 85.9681C474.35 85.9652 474.351 85.9626 474.353 85.9604C475.098 84.2246 475.487 82.357 475.496 80.4682C475.457 78.034 471.339 73.7892 475.816 74.1976C481.928 74.7496 487.178 78.2658 491.964 82.2732C493.239 83.344 494.487 84.4535 495.707 85.5464C497.595 87.2466 499.588 89.1012 500.157 91.5796C500.248 91.9748 500.302 92.3777 500.317 92.7829C500.284 94.6497 499.935 96.4975 499.284 98.2476Z" fill="#2F2E41"/>
<path d="M461.916 91.5903C461.288 89.8948 460.325 88.3429 459.085 87.027C457.834 85.9698 456.353 85.2197 454.761 84.8367C452.698 84.2474 450.564 83.9416 448.418 83.9278C445.864 83.9118 442.902 84.597 441.817 86.9094C440.956 88.7456 441.623 90.9201 442.491 92.7536C442.861 93.7033 443.478 94.5371 444.279 95.1687C445.38 95.9129 446.805 95.8893 448.111 96.1386C450.136 96.6526 452.053 97.5214 453.775 98.7048L458.249 101.409L465.934 106.053C465.731 105.931 465.803 100.662 465.567 99.7982C464.807 97.0163 463.095 94.2247 461.916 91.5903Z" fill="#FFB9B9"/>
<path d="M474.416 55.8184C474.094 54.7364 473.385 53.811 472.424 53.2186C472.473 52.0596 472.331 50.9004 472.003 49.7876C470.907 46.5485 468.311 46.7342 465.862 45.3021C464.799 44.6808 464.865 44.1316 464.312 43.1111C463.587 41.7733 462.501 40.6657 461.178 39.9141C459.607 38.9131 457.948 37.8821 456.089 37.7555C452.182 37.4892 449.187 41.1632 445.453 42.3423C443.807 42.862 442.039 42.8834 440.384 43.3748C438.73 43.8661 437.079 45.0392 436.832 46.7472C436.719 47.5357 436.919 48.3446 436.804 49.1329C436.574 50.6997 435.2 51.797 434.279 53.0857C432.244 55.9354 432.477 59.9613 434.105 63.0619C434.447 63.7035 434.84 64.3174 435.278 64.8981C435.414 66.3637 435.835 67.7886 436.517 69.0927C438.145 72.1933 440.945 74.5103 443.871 76.4352C443.631 75.4069 443.486 74.3589 443.437 73.3042C443.396 72.9527 443.441 72.5965 443.57 72.2668C443.896 71.5858 444.757 71.4047 445.413 71.0318C446.773 70.2593 447.306 68.5498 447.345 66.9868C447.384 65.4238 447.053 63.8582 447.217 62.3033C447.223 61.9458 447.305 61.5935 447.455 61.2693C447.606 60.945 447.824 60.656 448.093 60.4209C448.595 60.1347 449.168 59.998 449.745 60.0271C452.531 59.9135 455.441 59.8623 457.898 58.5452C458.69 58.019 459.542 57.5881 460.436 57.2617C462.524 56.7172 464.658 58.1806 465.861 59.9715C467.065 61.7625 467.665 63.8938 468.775 65.7439C469.885 67.594 471.804 69.2439 473.95 69.0247C474.071 69.025 474.191 68.9997 474.301 68.9506C474.412 68.9015 474.511 68.8296 474.591 68.7396C474.684 68.5733 474.725 68.3832 474.71 68.1935L474.829 59.9887C474.929 58.5852 474.789 57.1749 474.416 55.8184Z" fill="#2F2E41"/>
<path d="M426.694 110.612C427.086 113.841 427.323 117.081 427.406 120.332H412.225V107.576C412.302 107.267 412.385 106.963 412.484 106.66C413.434 103.734 415.427 101.283 417.154 98.7387C417.237 98.6117 417.326 98.4848 417.408 98.3578C418.143 97.2844 418.775 96.1441 419.297 94.9522C419.545 94.367 419.942 91.5354 420.362 91.2925C422.162 90.2493 423.625 94.7092 423.873 95.7029C424.756 99.2411 425.524 102.812 426.103 106.417C426.33 107.813 426.527 109.212 426.694 110.612Z" fill="#2F2E41"/>
<path d="M503.413 120.332H468.561C468.263 119.631 467.97 118.93 467.661 118.235C465.488 113.32 462.678 108.712 459.303 104.529C458.746 103.976 458.384 103.257 458.271 102.481C458.259 102.159 458.337 101.839 458.497 101.559C459.027 100.571 460.429 99.9916 461.567 99.5225C462.742 99.0492 463.823 98.3687 464.757 97.5132C465.584 96.7694 466.217 95.8354 466.601 94.792C466.704 94.486 466.781 94.1722 466.833 93.8536C466.993 94.0633 467.159 94.2787 467.319 94.4883C467.711 95.0072 468.108 95.5206 468.511 96.0339C472.376 100.996 476.621 105.887 481.96 108.829C483.354 109.606 484.827 110.233 486.354 110.7C486.5 110.764 486.658 110.798 486.818 110.798C486.978 110.798 487.135 110.764 487.282 110.7C487.507 110.515 487.651 110.25 487.685 109.96C488.159 107.973 488.325 105.925 488.673 103.911C489.312 100.245 490.54 96.7071 492.311 93.4342C493.299 91.596 496.512 84.8784 498.549 89.1121C499.134 90.3319 499.723 91.5555 500.316 92.7828C500.686 93.5611 501.061 94.3338 501.436 95.1122C502.822 97.5814 503.453 100.402 503.253 103.226C503.308 108.934 503.361 114.636 503.413 120.332Z" fill="#2F2E41"/>
<path opacity="0.1" d="M428.089 120.332H431.109L429.398 114.652L426.93 106.467C426.959 107.852 426.879 109.238 426.692 110.612C426.32 113.451 425.508 116.214 424.285 118.803C424.048 119.306 423.794 119.813 423.59 120.332H428.089Z" fill="black"/>
<path opacity="0.1" d="M489.6 102.877C489.175 104.02 489.561 105.285 489.889 106.46C490.838 109.868 491.282 113.397 491.205 116.934C491.218 116.996 491.217 117.06 491.199 117.121C491.182 117.182 491.15 117.238 491.105 117.283C491.061 117.329 491.006 117.362 490.946 117.381C490.885 117.4 490.821 117.404 490.759 117.391C489.367 117.477 487.773 117.486 486.828 116.459L489.6 102.877Z" fill="black"/>
<path d="M362.828 79.7942H51.4648V290.652H362.828V79.7942Z" fill="#3F3D56"/>
<path opacity="0.1" d="M317.559 276.3C337.682 276.3 353.995 274.57 353.995 272.436C353.995 270.302 337.682 268.573 317.559 268.573C297.436 268.573 281.123 270.302 281.123 272.436C281.123 274.57 297.436 276.3 317.559 276.3Z" fill="black"/>
<path d="M163.534 99.1135H71.3398V199.574H163.534V99.1135Z" fill="#F2F2F2"/>
<path d="M101.028 145.239C101.327 145.33 101.649 145.314 101.938 145.195C102.227 145.075 102.466 144.859 102.614 144.583C103.889 142.574 101.541 139.984 102.05 137.66C102.457 135.798 104.573 134.693 105.006 132.836C105.426 131.032 104.131 128.999 105.006 127.367C105.692 126.088 107.406 125.752 108.84 125.976C110.274 126.2 111.635 126.83 113.083 126.918C115.014 127.036 116.854 126.187 118.741 125.766C120.628 125.345 122.931 125.509 124.041 127.092C125.467 129.125 124.02 131.956 124.517 134.388C124.911 136.32 126.528 137.919 126.563 139.89C126.575 140.591 124.733 140.027 124.831 140.72C124.929 141.414 124.059 140.803 124.755 140.721C125.039 140.651 125.293 140.493 125.482 140.269C125.67 140.045 125.782 139.767 125.802 139.475C125.885 138.897 126.971 138.705 126.958 138.121C126.929 136.753 129.402 137.676 129.81 136.369C130.746 133.325 130.554 130.044 129.268 127.129C128.606 125.939 128.076 124.678 127.69 123.372C127.327 121.558 127.899 119.611 127.3 117.861C126.492 115.503 123.82 114.301 121.338 114.056C118.857 113.812 116.336 114.249 113.869 113.889C111.659 113.567 109.52 112.609 107.291 112.748C104.616 112.914 102.288 114.637 100.434 116.572C98.5804 118.507 97.0076 120.732 94.902 122.389C94.2573 122.833 93.6626 123.345 93.128 123.916C92.0556 125.223 91.9468 127.085 92.2451 128.748C92.5435 130.412 93.1927 131.999 93.4668 133.667C93.7244 135.235 93.6449 136.837 93.7558 138.421C93.7818 140.02 94.2658 141.577 95.1503 142.909C95.5325 143.427 96.0281 143.852 96.5992 144.15C97.1704 144.449 97.8021 144.613 98.4462 144.63C98.8925 144.641 99.2695 144.24 99.7199 144.344C100.283 144.475 100.528 145.01 101.028 145.239Z" fill="#2F2E41"/>
<path d="M80.752 200.127C81.155 194.601 81.4586 190.472 81.4586 190.472L84.0643 183.606L92.4281 200.127L80.752 200.127Z" fill="#575A89"/>
<path opacity="0.1" d="M80.752 200.127C81.155 194.601 81.4586 190.472 81.4586 190.472L84.0643 183.606L92.4281 200.127L80.752 200.127Z" fill="black"/>
<path d="M100.135 145.801C100.135 145.801 107.934 165.649 103.443 169.43C98.9531 173.211 128.494 163.05 128.494 163.05L127.785 160.451C127.785 160.451 118.096 156.67 122.822 145.801C127.549 134.931 100.135 145.801 100.135 145.801Z" fill="#A0616A"/>
<path opacity="0.1" d="M100.135 145.801C100.135 145.801 107.934 165.649 103.443 169.43C98.9531 173.211 128.494 163.05 128.494 163.05L127.785 160.451C127.785 160.451 118.096 156.67 122.822 145.801C127.549 134.931 100.135 145.801 100.135 145.801Z" fill="black"/>
<path d="M111.242 153.834C120.379 153.834 127.785 146.429 127.785 137.294C127.785 128.159 120.379 120.753 111.242 120.753C102.106 120.753 94.6992 128.159 94.6992 137.294C94.6992 146.429 102.106 153.834 111.242 153.834Z" fill="#A0616A"/>
<path d="M151.417 172.974C151.417 172.974 151.35 174.288 151.235 176.584C150.997 181.26 150.572 190.02 150.147 200.126H86.0193C84.3436 197.882 82.9718 195.427 81.9395 192.824C81.6603 192.069 81.4983 191.276 81.4593 190.472C81.1059 184.207 86.7204 175.464 90.6842 174.63C95.1725 173.681 103.68 164.706 103.68 164.706C103.707 165.047 103.821 165.376 104.01 165.662C104.199 165.948 104.458 166.181 104.762 166.34V166.345C105.448 166.699 106.215 166.867 106.987 166.831C109.758 166.831 121.948 161.206 125.862 159.368C126.629 159.009 127.076 158.794 127.076 158.794C131.59 160.742 136.254 162.324 141.021 163.524C143.4 164.118 145.595 165.291 147.409 166.941C149.223 168.59 150.6 170.663 151.417 172.974Z" fill="#575A89"/>
<path d="M98.1917 143.585C98.4911 143.676 98.8128 143.66 99.102 143.54C99.3912 143.421 99.6301 143.205 99.7779 142.929C101.053 140.92 98.7054 138.33 99.2137 136.006C99.621 134.144 101.737 133.038 102.17 131.182C102.59 129.378 101.295 127.345 102.171 125.713C102.857 124.434 104.57 124.098 106.004 124.322C107.438 124.546 108.799 125.176 110.247 125.264C112.178 125.382 114.018 124.532 115.905 124.112C117.792 123.691 120.095 123.855 121.205 125.438C122.631 127.471 121.184 130.301 121.681 132.734C122.075 134.666 126.566 136.021 126.974 134.715C127.91 131.67 127.718 128.39 126.432 125.475C125.77 124.285 125.24 123.024 124.855 121.718C124.491 119.904 125.063 117.957 124.464 116.207C123.656 113.849 120.984 112.646 118.502 112.402C116.021 112.158 113.5 112.595 111.033 112.235C108.823 111.913 106.684 110.955 104.455 111.094C101.78 111.26 99.4526 112.983 97.5985 114.918C95.7445 116.853 94.1717 119.078 92.0661 120.735C91.4214 121.179 90.8266 121.691 90.2921 122.262C89.2196 123.569 89.1109 125.43 89.4092 127.094C89.7076 128.758 90.3567 130.345 90.6308 132.013C90.8884 133.581 90.809 135.183 90.9199 136.767C90.9459 138.366 91.4298 139.923 92.3144 141.255C92.6966 141.773 93.1921 142.198 93.7633 142.496C94.3344 142.795 94.9661 142.959 95.6103 142.976C96.0566 142.987 96.4336 142.586 96.884 142.69C97.4471 142.821 97.6919 143.355 98.1917 143.585Z" fill="#2F2E41"/>
<path opacity="0.1" d="M159.614 200.127H140.899C139.475 189.683 138.299 178.765 138.299 178.765L142.08 177.109L149.765 172.975C149.765 172.975 150.328 174.31 151.234 176.585C153.166 181.448 156.672 190.599 159.614 200.127Z" fill="black"/>
<path d="M161.266 200.126H140.144C137.014 188.7 133.928 176.281 133.928 176.281L141.966 170.375L151.417 172.974C151.417 172.974 156.949 186.139 161.266 200.126Z" fill="#575A89"/>
<path d="M309.279 99.1135H220.396V105.185H309.279V99.1135Z" fill="black"/>
<path d="M103.911 215.03H72.4434V221.102H103.911V215.03Z" fill="black"/>
<path d="M162.43 226.07H72.4434V232.142H162.43V226.07Z" fill="black"/>
<path d="M327.497 121.193H199.418V127.265H327.497V121.193Z" fill="#F2F2F2"/>
<path d="M327.497 138.304H199.418V144.376H327.497V138.304Z" fill="#F2F2F2"/>
<path d="M327.497 155.416H199.418V161.488H327.497V155.416Z" fill="#F2F2F2"/>
<path d="M327.497 172.527H199.418V178.599H327.497V172.527Z" fill="#F2F2F2"/>
<path d="M327.497 189.639H199.418V195.711H327.497V189.639Z" fill="#F2F2F2"/>
<path d="M327.497 206.75H199.418V212.822H327.497V206.75Z" fill="#F2F2F2"/>
<path d="M327.497 223.862H199.418V229.934H327.497V223.862Z" fill="#F2F2F2"/>
<path opacity="0.1" d="M609.766 425.889C609.766 465.36 554.74 453.151 487.366 453.151C419.992 453.151 365.783 465.36 365.783 425.889C365.783 386.418 420.802 377.833 488.176 377.833C555.55 377.833 609.766 386.418 609.766 425.889Z" fill="black"/>
<path d="M609.766 418.516C609.766 457.987 554.74 445.778 487.366 445.778C419.992 445.778 365.783 457.987 365.783 418.516C365.783 379.045 420.802 370.46 488.176 370.46C555.55 370.46 609.766 379.045 609.766 418.516Z" fill="#3F3D56"/>
<path d="M379.741 294.861L377.248 297.755C377.248 297.755 346.931 300.602 348.161 305.522C349.392 310.443 384.663 298.961 384.663 298.961L379.741 294.861Z" fill="#FFC1C7"/>
<path d="M434.697 292.4C434.697 292.4 402.298 303.882 384.662 298.961L392.865 315.364C392.865 315.364 434.697 314.134 442.08 306.752C449.462 299.371 434.697 292.4 434.697 292.4Z" fill="black"/>
<path opacity="0.1" d="M434.697 292.4C434.697 292.4 402.298 303.882 384.662 298.961L392.865 315.364C392.865 315.364 434.697 314.134 442.08 306.752C449.462 299.371 434.697 292.4 434.697 292.4Z" fill="black"/>
<path d="M412.756 204.441C424.761 204.441 434.493 194.711 434.493 182.708C434.493 170.705 424.761 160.974 412.756 160.974C400.751 160.974 391.02 170.705 391.02 182.708C391.02 194.711 400.751 204.441 412.756 204.441Z" fill="#FFC1C7"/>
<path d="M431.29 203.111C432.039 204.54 432.987 205.854 434.107 207.014C437.084 210.253 440.637 212.911 444.584 214.854C432.247 217.36 419.786 219.213 407.253 220.404C408.576 215.745 406.834 210.761 404.493 206.521C402.152 202.281 399.168 198.328 397.703 193.712L412.395 194.107C415.061 194.178 417.735 194.258 420.4 194.128C422.392 194.03 425.711 192.837 427.571 193.277C431.501 194.206 429.574 199.625 431.29 203.111Z" fill="#FFC1C7"/>
<path d="M480.633 305.112L492.937 319.875C492.937 319.875 513.443 367.852 468.739 372.773C424.036 377.694 390.815 369.082 390.815 369.082C390.815 369.082 372.77 360.471 372.36 367.032C371.95 373.593 370.309 392.046 360.466 410.089L351.854 429.772C351.854 429.772 347.342 434.283 348.573 440.434C349.803 446.585 321.094 448.635 321.504 440.434C321.504 440.434 325.606 433.463 325.606 429.362C325.606 425.261 332.168 415.42 332.168 415.42L344.061 356.37C344.061 356.37 343.241 326.025 371.129 331.766C399.018 337.507 438.8 330.536 438.8 330.536L447.823 298.961L480.633 305.112Z" fill="#2F2E41"/>
<path opacity="0.1" d="M480.633 305.112L492.937 319.875C492.937 319.875 513.443 367.852 468.739 372.773C424.036 377.694 390.815 369.082 390.815 369.082C390.815 369.082 372.77 360.471 372.36 367.032C371.95 373.593 370.309 392.046 360.466 410.089L351.854 429.772C351.854 429.772 347.342 434.283 348.573 440.434C349.803 446.585 321.094 448.635 321.504 440.434C321.504 440.434 325.606 433.463 325.606 429.362C325.606 425.261 332.168 415.42 332.168 415.42L344.061 356.37C344.061 356.37 343.241 326.025 371.129 331.766C399.018 337.507 438.8 330.536 438.8 330.536L447.823 298.961L480.633 305.112Z" fill="black"/>
<path d="M434.492 304.032C434.492 304.032 472.019 289.94 492.935 319.875C492.935 319.875 498.267 366.212 476.94 368.262C455.614 370.313 427.725 369.903 421.163 362.931C414.601 355.96 373.179 336.277 373.179 336.277C373.179 336.277 352.559 325.761 348.515 339.426C344.47 353.09 344.06 356.37 344.06 356.37C344.06 356.37 322.733 371.953 314.121 374.823C314.121 374.823 308.379 383.025 305.098 383.025C301.817 383.025 281.721 387.535 283.772 372.363L316.992 342.018L350.212 309.623C350.212 309.623 359.645 295.681 383.842 303.062C399.901 307.84 416.19 311.809 432.647 314.954L434.492 304.032Z" fill="#2F2E41"/>
<path d="M347.342 439.614C347.342 439.614 355.134 459.297 348.572 461.757C342.01 464.218 328.066 462.577 328.066 462.577C328.066 462.577 311.661 460.527 307.56 460.937C303.458 461.347 286.643 458.067 289.104 451.506C291.565 444.945 304.279 446.585 304.279 446.585L315.762 441.254C315.762 441.254 316.993 437.153 319.863 438.794C322.734 440.434 330.937 446.585 347.342 439.614Z" fill="#CBCEDA"/>
<path d="M304.688 381.384C304.688 381.384 313.301 400.657 299.357 399.017C285.413 397.377 274.749 394.506 270.648 394.096C266.703 393.702 255.548 389.893 257.259 382.304C257.351 381.813 257.389 381.313 257.37 380.814C257.37 379.795 258.755 377.796 269.828 378.104C269.828 378.104 278.03 378.104 281.311 372.363C281.311 372.363 293.615 387.945 304.688 381.384Z" fill="#CBCEDA"/>
<path d="M397.787 217.358C397.787 217.358 427.316 198.905 451.924 217.358C476.531 235.811 492.936 319.874 492.936 319.874L435.929 307.162C435.929 307.162 433.468 297.321 430.187 295.681C426.906 294.04 426.496 287.069 426.496 287.069C426.496 287.069 408.86 281.738 410.091 261.235C411.321 240.732 397.787 217.358 397.787 217.358Z" fill="black"/>
<path d="M412.961 218.178H397.786C397.786 218.178 388.764 228.43 387.533 254.264L382.612 274.767C382.612 274.767 372.359 299.371 378.511 303.472C384.663 307.572 396.556 307.162 399.017 298.961C401.478 290.76 418.293 243.192 418.293 243.192L412.961 218.178Z" fill="black"/>
<path d="M408.613 154.423C412.375 152.881 416.491 152.412 420.504 153.07C424.517 153.728 428.268 155.486 431.341 158.149C439.217 165.177 440.807 176.642 442.798 187.008C444.789 197.374 448.795 208.918 458.566 212.914C454.161 213.502 449.691 213.372 445.328 212.529L460.094 225.759L435.22 217.653C427.414 215.109 419.215 212.533 411.131 213.97C397.739 216.35 388.415 228.938 375.552 233.36L376.981 226.386L368.352 226.32C370.419 224.79 372.11 222.809 373.296 220.528C372.889 220.034 372.387 219.626 371.82 219.33C371.253 219.033 370.633 218.853 369.995 218.801C366.397 196.365 379.722 174.188 397.086 159.53C400.502 156.647 404.281 153.878 408.693 153.156C413.104 152.435 418.254 154.408 419.788 158.605" fill="#2F2E41"/>
<path d="M32.291 360.038C32.291 407.238 61.9063 445.432 98.505 445.432L32.291 360.038Z" fill="#3F3D56"/>
<path d="M98.5059 445.432C98.5059 397.701 131.555 359.078 172.397 359.078L98.5059 445.432Z" fill="black"/>
<path d="M56.2812 364.317C56.2812 409.152 75.1663 445.432 98.5047 445.432L56.2812 364.317Z" fill="black"/>
<path d="M98.5059 445.432C98.5059 384.443 136.705 335.091 183.912 335.091L98.5059 445.432Z" fill="#3F3D56"/>
<path d="M84.5762 446.034C84.5762 446.034 93.9664 445.745 96.7964 443.73C99.6264 441.715 111.241 439.309 111.943 442.541C112.645 445.772 126.055 458.612 115.453 458.698C104.852 458.783 90.82 457.047 87.9955 455.326C85.1709 453.606 84.5762 446.034 84.5762 446.034Z" fill="#A8A8A8"/>
<path opacity="0.2" d="M115.642 457.573C105.041 457.658 91.0092 455.922 88.1846 454.202C86.0336 452.891 85.1765 448.191 84.8897 446.022C84.691 446.03 84.5762 446.034 84.5762 446.034C84.5762 446.034 85.1709 453.606 87.9955 455.326C90.82 457.047 104.852 458.783 115.453 458.698C118.514 458.673 119.571 457.584 119.513 455.972C119.087 456.946 117.92 457.555 115.642 457.573Z" fill="black"/>
</svg>
