<svg width="56" height="56" viewBox="0 0 123 123" fill="none" xmlns="http://www.w3.org/2000/svg">
<g filter="url(#filter0_d)">
<path d="M20.1309 53.24C20.1309 30.47 38.6009 12 61.3709 12C84.1509 12 102.611 30.47 102.611 53.24C102.611 76.02 84.1409 94.48 61.3709 94.48C38.6009 94.49 20.1309 76.02 20.1309 53.24Z" fill="white"/>
<path opacity="0.8" d="M26.8203 55.6601C26.8203 35.0701 43.5103 18.3701 64.1103 18.3701C84.7103 18.3701 101.4 35.0601 101.4 55.6601C101.4 76.2501 84.7103 92.9501 64.1103 92.9501C43.5103 92.9501 26.8203 76.2601 26.8203 55.6601Z" fill="url(#paint0_radial)"/>
<path d="M29.0312 53.2399C29.0312 35.3799 43.5113 20.8999 61.3713 20.8999C79.2313 20.8999 93.7113 35.3799 93.7113 53.2399C93.7113 71.0999 79.2313 85.5799 61.3713 85.5799C43.5113 85.5899 29.0312 71.1099 29.0312 53.2399Z" fill="url(#paint1_linear)"/>
<path d="M81.0307 40.7701C79.7607 41.3401 78.3607 41.6901 77.0007 41.9201C77.6507 41.8101 78.6007 40.6401 78.9807 40.1601C79.5607 39.4401 80.0507 38.6101 80.3207 37.7201C80.3507 37.6501 80.3807 37.5601 80.3107 37.5101C80.2207 37.4801 80.1707 37.4901 80.1007 37.5301C78.5807 38.3501 77.0007 38.9401 75.3207 39.3601C75.1807 39.3901 75.0807 39.3601 74.9907 39.2701C74.8507 39.1101 74.7207 38.9601 74.5707 38.8401C73.8607 38.2401 73.1107 37.7701 72.2507 37.4201C71.1307 36.9601 69.9107 36.7701 68.7007 36.8501C67.5307 36.9301 66.3707 37.2601 65.3307 37.8001C64.2907 38.3501 63.3507 39.1001 62.6107 40.0201C61.8407 40.9701 61.2807 42.0901 60.9907 43.2701C60.7107 44.4101 60.7307 45.5501 60.9007 46.7001C60.9307 46.8901 60.9107 46.9201 60.7407 46.8901C54.1707 45.9101 48.7307 43.5601 44.3107 38.5301C44.1207 38.3101 44.0107 38.3101 43.8607 38.5501C41.9307 41.4501 42.8607 46.1001 45.2807 48.3901C45.6007 48.7001 45.9307 49.0001 46.2907 49.2801C46.1607 49.3101 44.5507 49.1301 43.1207 48.3901C42.9307 48.2701 42.8307 48.3401 42.8107 48.5601C42.7907 48.8701 42.8207 49.1601 42.8607 49.5001C43.2307 52.4401 45.2707 55.1501 48.0507 56.2101C48.3807 56.3501 48.7507 56.4701 49.1007 56.5301C48.4707 56.6701 47.8107 56.7701 45.9907 56.6301C45.7607 56.5901 45.6807 56.7001 45.7607 56.9201C47.1307 60.6501 50.0807 61.7601 52.2907 62.3901C52.5907 62.4401 52.8807 62.4401 53.1807 62.5101C53.1607 62.5401 53.1407 62.5401 53.1307 62.5601C52.4007 63.6801 49.8507 64.5101 48.6707 64.9201C46.5207 65.6701 44.1707 66.0101 41.9007 65.7901C41.5407 65.7401 41.4607 65.7401 41.3607 65.7901C41.2607 65.8501 41.3507 65.9401 41.4607 66.0301C41.9207 66.3401 42.3907 66.6101 42.8707 66.8701C44.3207 67.6401 45.8207 68.2501 47.4007 68.6801C55.5407 70.9301 64.7107 69.2801 70.8207 63.2001C75.6207 58.4301 77.3007 51.8601 77.3007 45.2701C77.3007 45.0101 77.6007 44.8701 77.7907 44.7301C79.0407 43.7901 80.0507 42.6701 80.9807 41.4201C81.1907 41.1401 81.1907 40.8901 81.1907 40.7901C81.1907 40.7701 81.1907 40.7601 81.1907 40.7601C81.2007 40.6601 81.1907 40.7001 81.0307 40.7701Z" fill="white"/>
</g>
<defs>
<filter id="filter0_d" x="0.130859" y="0" width="122.48" height="122.48" filterUnits="userSpaceOnUse" color-interpolation-filters="sRGB">
<feFlood flood-opacity="0" result="BackgroundImageFix"/>
<feColorMatrix in="SourceAlpha" type="matrix" values="0 0 0 0 0 0 0 0 0 0 0 0 0 0 0 0 0 0 127 0" result="hardAlpha"/>
<feOffset dy="8"/>
<feGaussianBlur stdDeviation="10"/>
<feColorMatrix type="matrix" values="0 0 0 0 0 0 0 0 0 0 0 0 0 0 0 0 0 0 0.1 0"/>
<feBlend mode="normal" in2="BackgroundImageFix" result="effect1_dropShadow"/>
<feBlend mode="normal" in="SourceGraphic" in2="effect1_dropShadow" result="shape"/>
</filter>
<radialGradient id="paint0_radial" cx="0" cy="0" r="1" gradientUnits="userSpaceOnUse" gradientTransform="translate(64.1114 55.6633) scale(37.2887)">
<stop/>
<stop offset="0.3726" stop-color="#020202" stop-opacity="0.6274"/>
<stop offset="0.5069" stop-color="#090909" stop-opacity="0.4931"/>
<stop offset="0.6026" stop-color="#141414" stop-opacity="0.3974"/>
<stop offset="0.68" stop-color="#252525" stop-opacity="0.32"/>
<stop offset="0.7463" stop-color="#3B3B3B" stop-opacity="0.2537"/>
<stop offset="0.805" stop-color="#575757" stop-opacity="0.195"/>
<stop offset="0.8581" stop-color="#777777" stop-opacity="0.1419"/>
<stop offset="0.9069" stop-color="#9D9D9D" stop-opacity="0.0931"/>
<stop offset="0.9523" stop-color="#C8C8C8" stop-opacity="0.0477"/>
<stop offset="0.9926" stop-color="#F6F6F6" stop-opacity="0.01"/>
<stop offset="1" stop-color="white" stop-opacity="0"/>
</radialGradient>
<linearGradient id="paint1_linear" x1="38.505" y1="30.3736" x2="84.2453" y2="76.1139" gradientUnits="userSpaceOnUse">
<stop stop-color="#33CCFF"/>
<stop offset="1" stop-color="#337FFF"/>
</linearGradient>
</defs>
</svg>
